<svg id="Layer_1" data-name="Layer 1" xmlns="http://www.w3.org/2000/svg" viewBox="0 0 1366 768">
  <title>borneo</title>
  <g>
    <path d="M712.88,305.7c2,6.38,5,11.56,12.55,10.33,2.4-.39,5.66-1.4,6.58-3.15.78-1.48-1-4.54-2.12-6.7-.68-1.38-2.08-2.39-3.3-3.72l6.91-14.13a7.35,7.35,0,0,1,1.38-.41c3.71-.13,8.14,4.34,10.81-.37,1-1.84-1.79-5.72-2.43-8.75-.46-2.17-1.13-5.1-.11-6.65,5.88-9,8.23-20.34,17.88-26.83,2.82-1.89,3.13-4.66,2.36-8a123,123,0,0,1-2.15-13.67c-.53-4.55,1.18-7.3,6-8.72A143.56,143.56,0,0,0,788.15,207c1.73-.81,3.17-4.5,3-6.7-.54-5.57-2.4-11-3.16-16.56-1.32-9.63-3-18.91,4.48-27.81,4.9-5.82,7-14,10.91-22.42L826,143.86c1.32-1.18,3.62-3.5,6.19-5.47,6.71-5.12,9.77-5.08,16.75-.2,8.26,5.79,16.24,5.64,24.46-.47,5-3.75,12.21-2.17,13.4,3.8,1.3,6.57,5.1,8.85,10.7,9.47-.8,6-1.56,11.82-2.34,17.69-9.61,2.45-19.93-2.31-29,5.07,3.48,2.78,6.8,5.34,10,8,4.87,4,8.11,8.56,6.29,15.57a14.6,14.6,0,0,0,.88,8.68c1,2.45,3.18,5.21,5.51,6.16,5.16,2.11,7.54,8.84,14.24,8.28.58-.05,1.33,2.09,2,3.2,4.49,7.33,9,14.64,13.46,22a31.22,31.22,0,0,1,1.9,4.52c-4.77,6.7-9.57,13.05-13.93,19.68-3.06,4.65-2.66,6,1.66,11.71l9.91-9c-2.11,11.65,1.68,17.81,11.79,19.75-.63,3.05-1.21,5.89-1.89,9.2l12.18,7.3,7.64-4.79c6.84,4.22,14,7.32,19.41,12.36s8.86,11.95,13.12,18c-6.13,6-6.13,6-16.34-.48-8.29,9.72-17.13,3-26.82,1.13,1-3.59,1.75-6.26,2.66-9.49-5-1.17-9.47-2.39-14-3.19-3.68-.65-6.74.85-8,4.43-1.21,3.39-3.73,4.9-6.39,7-4,3.16-7,7.78-10.13,12-2.93,3.87-3.26,7.89.23,11.78,2.86,3.17,2.59,6.27.53,10-4.37,7.88-8.06,16-5.79,25.55.8,3.36-1.42,5.84-4.68,6.65-5.33,1.33-6.52,5.05-6.41,9.8.06,2.33.1,4.67,0,7-.39,6.76.4,12.69,8.37,14.87,1.13.31,1.79,2.35,3.72,5.07l-8.48-.88-16.73,9c.09.35.39,1.85.83,3.31,1.94,6.49-1.72,12.93-8.22,14.15-4.41.83-6.21-2-6.43-5.66s.36-7.15.58-10.64c-12.5-3.05-17.84,0-17.19,10.16.21,3.18,2.64,6.45,4.66,9.23,1.43,2,3.89,3.17,6.59,5.26-2.29,1.81-3.58,3.32-5.22,4.05a18.1,18.1,0,0,0-10,10.48c-2.41,6-4.09,6.16-9.79,3.11a60.23,60.23,0,0,0-6.27-2.89c-.43-.17-1.16.41-2.37.89.6,2.05,1.29,4.14,1.84,6.27,1.52,5.84.24,6.88-6.32,5.54-1.92,3.8-3.48,7.73-5.8,11.14-1.1,1.61-3.64,2.25-6.64,4,.3-3.81.5-6.31.69-8.74-10-6.63-12-13.89-7-24.29,2.33-4.76,4.73-9.5,7.34-14.74-.77-1.46-1.76-3.14-2.58-4.9-2-4.18-2.86-9.61-6.06-12.23-2.7-2.2-8.06-1.16-13-1.63.45-2.66.87-5.09,1.37-8.06-1.06-3.23-8.23-2.32-6.73-7.92.92-3.48,2.49-6.79,4-10.81l-9.79-.83c.24-2.73.37-4.91.64-7.08.43-3.57.86-7.14,1.47-10.68.44-2.52.57-5.41,1.93-7.39,3.35-4.85,1.46-8.29-2.41-11.07-4.84-3.48-9.81-7-16.37-6.35-1.57.16-3.19-.2-6.4-.45,2.44-6.17,5-11.33,6.51-16.79s1.77-11,2.76-17.69c-9.63,3-19.44,5.39-28.77,9-10.27,4-19.78,5.86-28-3.07-13,2.92-13.57,2.35-13.84-13.3,3,0,6.15-.48,9,.15,2.64.58,5,2.36,9.57,4.66-.7-5.78-1.17-9.25-1.53-12.73-.41-4-.76-7.94-1.1-11.92C703.67,308.64,706.25,306,712.88,305.7Zm233.87,13.64c7.87,5.94,9,5.56,11.09-2.7ZM738.16,301.82l3.23-1.4c-1-1.63-1.9-3.28-2.95-4.85a4.27,4.27,0,0,0-1.6.75C737.18,298.17,737.7,300,738.16,301.82Z"/>
    <path d="M677.65,590.33a23.17,23.17,0,0,0,.33-4c-.85-9.86-2.52-10.84-11.52-6.89-10.42,4.58-18.75,3-27-5-2.78-2.7-5.75-5.21-9.49-8.57-2.85,5.09-6.28,8.84-7,13.07-1.18,6.84-5,9-10.94,9-5.45.06-9.89,1.44-11.64,7.53-4.73-2-8.82-4.39-13.21-5.25s-9.19-.2-14.39-.2c-1.46,4-1.82,9.26-8.95,10.27-1-2.88-3-5.84-2.93-8.75.23-10.77-3-20.89-4.9-31.26-.69-3.71-.52-7.58-.75-11.72H544.87c-1.46,7.2,5.14,14.77-2.42,21.38-1.57-1.06-3.73-1.76-4.58-3.22A19.11,19.11,0,0,0,525,557c-6.47-1.63-7.94-9-2.77-12.92,6.72-5,5.47-10.53,2.65-17.23-1.26,0-2.5-.07-3.74,0-7.3.5-8.66-1.16-7.87-8.34a35.53,35.53,0,0,0-.6-10.53c-2.09-10.68,2.16-21.39,11.41-26.44,2.38-1.3,5.61-1.05,8.86-1.58L538,470.6l11.37.61a26,26,0,0,0-.69-4.52c-3.09-8-.34-13,8.26-13.15,7.16-.15,12.9-1,16-8.82.83-2.09,5.42-3.22,8.46-3.78a74.36,74.36,0,0,1,13.83-1,11.23,11.23,0,0,1,6.09,2c6.1,4.43,6,4.5,11-1.06a97.81,97.81,0,0,1,9.08-9.24c4.76-4,10.88-6.81,16.59-4.51,7,2.82,10.72-1,13.24-5.28a63.5,63.5,0,0,0,7.48-19.19c1.22-5.93.26-12.31.26-19.34,2.15.33,4.94.74,7.72,1.18,7.36,1.17,8.36.34,11-6.51a113,113,0,0,1,6.86-14.3c3.34-6.06,8.79-8.05,15.3-6.26,7.08,1.95,13.92,3.75,21.48,2,2.74-.65,6.16,1.61,9.39,2.58,2.59-2.59,5-6.6,8.48-7.92,2.61-1,6.54,1.46,9.69,2.33.32,5.58-2,8.56-5.86,9.16-7,1.1-9.38,5-9.74,11.61-.38,6.78,3.55,9.46,9,11.28.88.29,1.57,1.15,3.49,2.61-1.93,6.78-4,13.93-6,21.16,2.42,2.88,6.67,2.64,7.83.62,3.21-5.6,10.9-7.12,12.27-14.28.26-1.36,2.6-2.34,5.85-5.05-4,16.44-4.06,30.45,3.66,44.15-.91,1.92-1.93,4.36-3.18,6.67-2.17,4-1.36,7.72,1,11.28,3,4.6,6.16,5.17,10.88,2,1.53-1,2.92-2.25,4.65-3.59,1.9,8.44,1.26,9.08-12.41,13,5.67,11.53.2,18.83-10.92,24,9.58,8.75,8.68,17.58,1.91,27.29a82.11,82.11,0,0,0-8.21-3.48c-6.49-2-11.38.55-13,7.18a47.29,47.29,0,0,0-.88,12.81c.37,8.15-2.19,11.2-10.05,10.94-2.54-.09-5.08-.35-7.75-.53,1.93,16.55,0,16.4-12.45,15-2.43,3.19,2.64,8.17-2.79,11.4-2.52,1.5,5.64,6.42-.55,10.43a40.66,40.66,0,0,1-3.58-4c-3-4.36-7.28-4.22-11.64-3.56-3.67.55-5.09,2.91-4,6.51a22.28,22.28,0,0,0,1.74,3.58c1.42,2.71,3,5.49-.06,8.08s-5.56.43-8.1-1.15c-.85-.53-1.75-1-2.63-1.44Z"/>
    <path d="M411.92,283.37c2.11.73,4.12,1.06,5.74,2,5.49,3.31,5.95,6,2.28,11.33-5.42,7.86-5.42,7.86.45,14.82.43.51,1.1.92,1.3,1.5,4.61,13.41,15.75,12.2,26.26,11.19,4.29-.41,7.86-.35,8.67,4,2.27,12.18,11.23,14.49,21.32,15.47,8.16.8,16.34,1.47,25.31,2.26.94-2.49,3.12-4.14,7.48-4.32,5.68-.24,10.1-6,16.71-4.72,3.37.64,7-.37,10.5-.12,9.36.68,18.16-.35,25.52-6.91a9.5,9.5,0,0,1,2.54-1.56c7.21-3.09,14.44-6.13,21.78-9.23.19-2.23.45-3.82.44-5.4-.09-8,4.94-13.05,12.81-12.5a7.78,7.78,0,0,1,4.56,1.53c3.48,3.28,7.68,6.39,9.67,10.5,3,6.11,7,5.11,11.57,3.54,1.86-.64,3.51-1.91,5.32-2.75,4.29-2,7.33-1.21,9.86,3.3,4.26,7.61,7.32,8.54,15.34,6.49,3.47-.89,7.06-1.28,10.58-2,1.21-.25,2.87-.49,3.46-1.34,5.7-8.22,15.38-8,24.2-12.2-2.32,7-1.87,13.17-10.82,15.57-5.49,1.47-9.86,8.36-13.84,13.5-1.33,1.72-.82,6.06.41,8.35,3.27,6.06,2,10.64-2.63,15.17a47.13,47.13,0,0,0-6.17,7.85,9.16,9.16,0,0,1-8.27,4.54c-4.55,0-8.51,1.54-10.8,6.9,1.44,1.34,3.06,2.8,4.62,4.32a13.81,13.81,0,0,1-.27,20.09c-2.9,2.68-5.47,5.75-8.11,8.7-3.5,3.94-6.37,8.79-13.17,6.39-1.22-.43-3.58,1.2-4.88,2.44A19.55,19.55,0,0,1,607.49,428a23,23,0,0,0-12.68,4c-5.53,4.06-10.72,1.9-16.23,1.42-3.09-.26-7.34-.64-9.19,1.06-6.17,5.68-12.74,6.66-19.65,4-4.45,5.17-8.51,9.87-13.06,15.14l3.09,8.4-15,6.65c-3.68,9.46-16.63,15.27-32.3,13-.33,4-.66,7.87-1,12.3,3.72.42,6.53.14,8.76,1.15a11.46,11.46,0,0,1,5.46,5.09c1.33,2.92-.84,4.9-3.68,6-5.05,1.89-4.41,5.66-3.63,9.92,1.11,6.12,1.48,12.38,2.39,18.55.83,5.54,1.5,11.17,3.07,16.51,2.46,8.33,1.6,11.1-6.22,15.26-2.63,1.39-5.2,2.87-8.15,4.51l-10.14-13.37c-8.45-1.26-6.82,9.72-14.16,10.41-.47-5.78-1.42-10.87,2-16.27,5.41-8.56,5-9.05-3.77-14-4.12-2.36-7.26-10-6.31-15.67a46,46,0,0,1,1.68-6.78,42.39,42.39,0,0,1,2.18-4.88L447.32,503c2-5.23,3.39-9.59,5.29-13.74a12.81,12.81,0,0,1,4.23-5.17c3.79-2.5,4.63-5.59,2.7-9.4-2.34-4.62-3.4-8.91-1.32-14.23,1.65-4.19-.94-6.32-6.37-5.81-4,.38-7.46,1.13-11.36-1.53-3.58-2.43-5.94-4.83-5.52-9.47l-17.27-2.08,7.41-10.94c-1.15-2.54-2.45-5.46-3.73-8.31-4.53,1.06-8.25,2.3-12.05,2.65-1.55.15-4.2-1.31-4.64-2.62s.87-4.26,2.15-4.82c6.36-2.77,5.64-6.8,5.07-12.89s-2.28-11.06-3.88-16.58-4-8.25-9.13-10.52c-6.46-2.83-14-6-13.22-15.29a28.69,28.69,0,0,1,3-10.25c2.64-5.23,4.6-9.66.88-15.71s-1.42-11.12,4.81-15.05c2.53-1.59,5.28-2.82,7.83-4.37,5.4-3.26,6.26-7,1.35-10.92-4.72-3.79-4.37-6.73-1-10.74C405.72,291.47,408.67,287.51,411.92,283.37ZM639.43,403.16c-5.64-3.37-8.09-3.08-9.12.66-.22.8,1.39,3,1.59,2.89A78.18,78.18,0,0,0,639.43,403.16Zm-50.36,23.07a8.64,8.64,0,0,0,1.24-1.09c.09-.1-.23-.77-.35-.76a8.31,8.31,0,0,0-1.53.31Z"/>
    <path d="M785.72,601.38c-1,7.9-4.47,11.58-10.89,11-4,11.91-4,11.91-21.1,7.76-3.34,5.49-3.29,14.9-13.22,14.25-3.55-.23-10.38-7.67-11.33-12,3.43-1.63,9.61,4.73,11.09-4a24.45,24.45,0,0,0-4.16-2.14C728,614,724.31,610,724.17,601.85c-.1-6-1.29-12,3.17-17.85,2.93-3.87,3.33-10,3.91-15.24.53-4.78,2-8.32,7.34-10.4l6.17,3.63c2.11-5.62,4.1-10.92,6.44-17.17-3.9-9.79-3.39-10.39,7.73-16.85a168.59,168.59,0,0,0,19.51-13.56c1.79-1.41,2.36-4.57,3.13-7,1-3.26,2.54-5.41,7.06-4-.32,3.46-7.08,5.11-3.33,9.64,2.52,3,5,6.06,7.63,9.19-.11.41,0,1.26-.45,1.63-3,2.76-6.22,5.48-4.29,10.18s5.94,3.13,9.51,3.07c2.32,0,4.82-.17,6.93.6,8.11,3,16,4,23.64-2,.65,1.74,1.48,3.2,1.24,3.4-5.39,4.57-8.71,11.28-16.67,13.26-8.14,2-10.42,15.79-4.18,21.28,7.83,6.9,7.83,6.9-.68,12-.5,6-.45,11.56-1.55,16.92s-5.81,7.07-10.65,4.53C792.74,605.49,789.79,603.7,785.72,601.38Z"/>
  </g>
</svg>
