<svg id="Layer_1" data-name="Layer 1" xmlns="http://www.w3.org/2000/svg" viewBox="0 0 1851 1497">
  <title>cloudImg</title>
  <path d="M1713,978.19a26.54,26.54,0,0,1-4-1.2c3.4-15.09-.34-27.62-12.63-37-11.62-8.88-25.47-9-39.33-8.54,4.24-27-7-39.75-33.37-39.85-12.19-.05-22.89,3.76-32,11.83-14-21.06-28-26.38-52-20.21-14.34,3.69-25.12,11-31.75,21.4-3.12-2.74-7.05-4.69-10.54-7.06.37-.64.52-1.27.89-1.48,25.54-14.34,24.17-44.58,6.59-60.76-1.58-1.45-2.28-4-3.06-6.18-4.58-12.59-12.39-18.86-25.68-18.77-19,.12-34,9.44-47.43,21.94a11.26,11.26,0,0,0-2.88,4.07,22.2,22.2,0,0,0-.84-2.81c.94-2.73,3.67-5.24,6-7.22,3.88-3.25,5.21-6.8,3.86-11.68-1-3.76-1.4-7.7-2.42-11.46-4.73-17.46-22-30.4-38.74-29.15a31.79,31.79,0,0,0-11.53,3.13c-10.73-6.23-23-6.27-35.33-5.88a70.48,70.48,0,0,0,.8-7.51c17-.24,33-6.57,48.09-18.84,1.62-1.32,4.16-2.51,6.1-2.28,17.55,2.07,33.68-5.83,42.31-21.1,10.27-18.15,1.27-36.06-19.33-38.52a28.21,28.21,0,0,1-4-1.2c3.41-15.09-.33-27.62-12.62-37-11.62-8.88-25.47-9-39.33-8.53.2-1.24.35-2.44.48-3.62,1.7-.09,3.41-.17,5.12-.28,23.24-1.42,46.63-.38,70-.32,9.88,0,19.77.49,29.65.33,17.89-.29,35.79-.72,53.68-1.44,30.14-1.22,60.26-2.7,90.39-4.14.91,0,1.78-.9,3.73-2-19.28-1.49-37.16-2.73-55-4.42-2.6-.25-6-2-7.33-4.13-5.33-8.24-12.7-12-22.25-12.08-3.5,0-7,0-10.41,0-.83-11.35-4.7-15.15-15.29-15.1-12.65.06-23.61,3.89-30.4,16.19-3.89-2.8-7.58-4.8-10.42-7.65-5.58-5.6-9.65-14.3-16.24-16.91A243,243,0,0,1,1428.87,569c-7.65-4.09-17.11,4-20.13,14.74-.7,2.48-1.36,5-2.08,7.57l-9.37-10.58c4.22-12,4-13.49-4.12-26.32,2.32-4.93,5.66-9.33,6.43-14.15,2.23-14-13.78-33.67-28-34.14-4.91-.16-10,3-14.87,5-2.52,1-4.64,3.44-7.18,3.87-5.23.88-10.61.85-16.38,1.23a60.81,60.81,0,0,0-4.75-5.19,66.27,66.27,0,0,0-6.08-4.37c3.29-11.07,2-13.72-11-22.73.83-1.7,1.75-3.4,2.58-5.14l.4,0c11.66-.81,23.41-.17,35.09-.86,5.07-.31,10-2.41,15-3.7l-.15-2.55c-2.8-1.06-5.53-2.6-8.43-3.09-11.78-2-23.61-3.55-35.4-5.42a22.72,22.72,0,0,1-5.7-1.29,10.38,10.38,0,0,0-2.39-2.92c-5.23-7.64-13-10.39-23-10.59a59.54,59.54,0,0,0,5.69-9.91c26,7.62,49.72,2.31,71.62-15.47,1.62-1.32,4.16-2.51,6.1-2.28,17.55,2.07,33.68-5.83,42.31-21.1A32.59,32.59,0,0,0,1419,388.9c47.45-.9,94.88-2.28,142.27-5.13l.27-3.54-66.48-8.81c14.5,0,28.77,1.58,43.05,3.15a32,32,0,0,0,5.45.16q45.57-2.82,91.14-5.74a44.6,44.6,0,0,0,5.88-1.16c-1.81-2.2-3.48-3.12-5.16-3.16-19-.48-38-.54-57-1.34A60.53,60.53,0,0,1,1559,359.6c-8.94-3.57-17.67-5.51-27.34-4.55-4.8.48-9.81-1.15-15.92-2,5.12-7.91,3.65-13.22-2.25-17.69a6.43,6.43,0,0,1-2-3.91c-1.8-12.86-6-17-18.83-17.16-6.09-.06-12.19,1.11-17.71,1.67-2.6-4.3-4.43-8.82-7.56-12.08s-7.79-5.52-11.74-8.19c.37-.65.52-1.27.9-1.49,25.53-14.34,24.16-44.58,6.58-60.75-1.58-1.46-2.27-4-3.06-6.18a36.78,36.78,0,0,0-4.59-9,41.94,41.94,0,0,0,16.94-16.59c10.27-18.16,1.26-36.07-19.34-38.53a26.54,26.54,0,0,1-4-1.2c3.4-15.09-.34-27.62-12.63-37-11.62-8.88-25.47-9-39.33-8.53,4.24-27-7-39.76-33.37-39.86-12.19,0-22.89,3.76-32,11.83-14-21.06-28-26.38-52-20.21-23.52,6.05-37.46,21.84-39.25,45-1.56.19-2.57.41-3.58.42-20.17.28-34.29,7.72-42.12,21.9-10.81-6.41-23.22-6.46-35.64-6.06,4.24-27-7-39.76-33.37-39.86-12.19,0-22.89,3.76-32,11.83-14-21.06-28-26.38-52-20.21-23.52,6.05-37.46,21.84-39.25,45-1.56.19-2.57.41-3.58.42C970,127,953.5,142,950.13,170.47c-.26,2.16-2.8,4.19-4.57,6-4.59,4.65-11.26,8.32-13.66,13.87a48.93,48.93,0,0,0,.61,41.38c-2.19.39-4.47.88-6.85,1.49-23.52,6-37.46,21.84-39.25,45-1.56.19-2.57.41-3.58.42C854,279,837.5,294,834.13,322.47c-.26,2.16-2.8,4.19-4.57,6-4.59,4.65-11.26,8.32-13.66,13.87-6.39,14.75-5.64,30.16,2.16,44.44,10.11,18.53,27.53,27.4,45.78,25.24a19.27,19.27,0,0,0-4.94,6.32,51.27,51.27,0,0,0-4,14.61,54.8,54.8,0,0,0-9.34,1.39c-17.7,4.13-30.66,14.21-35.11,32.66-1.26,5.22-3,6.93-8.69,6.94-11.86,0-22.81,2.78-27.79,15.81-.5,1.33-3.74,2.41-5.63,2.29-17-1.09-30.3,3.59-35,20.72-5.53-8.47-14.48-15.37-22.81-15.64-4.91-.16-10,3-14.87,5-2.52,1-4.64,3.44-7.18,3.87-5.23.88-10.61.85-16.38,1.23a60.81,60.81,0,0,0-4.75-5.19,66.27,66.27,0,0,0-6.08-4.37c1.49-5,2-8.33,1-11.27a7,7,0,0,1,3.5-.71c17.55,2.07,33.68-5.83,42.31-21.1,10.27-18.15,1.27-36.06-19.33-38.52a28.21,28.21,0,0,1-4-1.2c3.41-15.09-.33-27.62-12.62-37-11.62-8.88-25.47-9-39.33-8.53,4.24-27-7-39.76-33.38-39.86-12.18,0-22.88,3.77-32,11.84-14-21.06-28-26.39-52.05-20.21-23.52,6.05-37.47,21.83-39.25,45-1.56.19-2.57.41-3.59.42-28.82.4-45.32,15.4-48.69,43.85-.26,2.16-2.8,4.2-4.58,6-3.22,3.28-7.47,6.07-10.55,9.37-.8.15-1.6.31-2.4.5-17.7,4.14-30.66,14.22-35.11,32.67-1.26,5.22-3,6.92-8.69,6.94-11.86,0-22.82,2.78-27.79,15.81-.5,1.33-3.74,2.4-5.63,2.28-17.07-1.08-30.42,3.63-35,20.93-7.15.8-13.84.48-19.79,2.44-14,4.61-23,15.11-28,28.55-2.49,6.75-6,8.9-12.87,9.56s-13.43,3.5-20.13,5.38l.45,3.34A34.25,34.25,0,0,0,229,569.92l-.59.15c-23.52,6-37.47,21.83-39.25,45-1.56.19-2.57.41-3.59.42-28.82.4-45.32,15.4-48.69,43.85-.26,2.16-2.8,4.2-4.58,6-4.58,4.66-11.25,8.33-13.65,13.88-6.39,14.74-5.64,30.16,2.15,44.44,14,25.61,41.93,32.79,66.71,17.84,1.69-1,5.06-.82,6.87.2,2,1.13,4,2.17,6,3.13-5.76,1.05-11.4,3.34-17.1,4.94l.45,3.34c12.21,8.71,27,5.85,40.63,7,1.06,13.64,5.43,18.11,19.11,21,2.33.49,5.53,2.12,6.26,4,4.81,12.49,16.57,18.33,29.26,13.92,2.35-.82,4.65-1.75,7.11-2.68a25.09,25.09,0,0,0,7.24,14.48c-20.23,1.74-39.4,9.64-59.14,14.14-.2,0-.23.83-.74,2.91,20.42.75,40.51,1.77,60.61,2.15,4.6.09,9.23,0,13.87-.22.14,1.81.36,3.66.69,5.55-2.57.21-5.11.36-7.64.64-16.77,1.84-30.47,9.57-39.47,23.64-4.24,6.63-8.58,9.7-16.18,9.16-4.39-.31-9.08-.69-13.21.47-8.39,2.35-16.86,5-24.59,8.91-5.6,2.83-5.15,8.23.74,10.5A64.09,64.09,0,0,0,227.9,893c10.63.5,21.33-.58,32-.46,3.72,0,8.32.55,11,2.73,18.5,15.2,40.23,14.92,62.23,14.18,4.45-.16,9.34-.27,13.35,1.32,18.85,7.48,37.5,7.15,54.18-.67.25.19.47.39.72.57a8.67,8.67,0,0,1,2.94,6.19c0,.93-3.41,2.59-5.38,2.77-7.14.64-11.25,4.3-9,10.85,1.53,4.44,6.2,8.36,10.37,11.16,3.26,2.19,7.92,2.29,12.78,3.53-14,1.22-26.83,1.83-39.53,3.58s-25.45,4.67-40.2,7.45c8.86,5.89,16.52,5.72,24.27,5.44,12.2-.44,24.4-.75,36.6-1,22.36-.5,44.83,0,66.51-7,5.39-1.76,10.86-3.3,16.29-4.94.23.74.46,1.48.7,2.22-7.77,2.57-15.56,5-23.29,7.71-20.45,7-39.89,17.66-62.71,16-3.66-.27-7.61,3.41-11.43,5.26.33.9.66,1.8,1,2.7,26-.53,52-.35,78-.53-1.29,2.91-2.67,5.79-4.25,8.6a37.6,37.6,0,0,0-4.57,3.64c-5.25.42-10.49.85-15.73,1.37-3.07.31-6.1,1.11-9.15,1.69l.18,2.36,18.56,1.93a40.84,40.84,0,0,0-2.91,5.28c-10.44-.41-16.27,2.77-20.2,10.7a23.14,23.14,0,0,0-2.44,7.82,13.36,13.36,0,0,1-1-1.44c-7.36-12.09-26.09-16.87-41.42-12-14.64,4.61-22.86,15.82-23.09,31.56-.07,4.54,0,9.07,0,13.85-11.79-8.45-20.74-8.88-26.59,0-3.39,5.15-5,11.91-5.85,18.15a39.16,39.16,0,0,0,.21,9.65c-3,.86-5.9,1.72-8.85,2.56a64.59,64.59,0,0,0-9-4.45,22.86,22.86,0,0,0-28.62,11.08c-6.2,12-3.47,23.89,6.81,31.37a8.67,8.67,0,0,1,2.94,6.19c0,.93-3.41,2.59-5.38,2.77-7.14.64-11.25,4.3-9,10.85,1.53,4.44,6.2,8.36,10.37,11.16,3.26,2.19,7.92,2.29,12.78,3.53-14,1.22-26.83,1.83-39.53,3.58s-25.45,4.67-40.2,7.45c8.86,5.89,16.52,5.72,24.27,5.44,12.2-.44,24.4-.75,36.6-1,22.36-.5,44.83,0,66.51-7,5.39-1.76,10.86-3.3,16.29-4.94.23.74.46,1.48.7,2.22-7.77,2.57-15.56,5.05-23.29,7.71-20.45,7-39.89,17.66-62.71,16-3.66-.27-7.61,3.41-11.43,5.26l1,2.7c35.94-.73,71.92-.11,107.86-1a31.48,31.48,0,0,0-4,9.28c-7.15.8-13.84.48-19.79,2.44-14,4.61-23.05,15.11-28,28.55-2.49,6.75-6,8.9-12.87,9.56s-13.43,3.5-20.13,5.38l.45,3.34c12.21,8.71,27,5.85,40.63,7,1.06,13.64,5.43,18.11,19.11,21,2.33.49,5.53,2.12,6.26,4,4.81,12.49,16.57,18.33,29.26,13.92,2.35-.82,4.65-1.75,7.11-2.68,3.45,26,46.44,37.42,79.91,6.42,1.71,1.44,3.42,3,5.22,4.39,15.55,12.28,33.47,14.72,52.45,12.39,15.27-1.87,25.71-10.24,32.19-24.09.74-1.59,3.64-3.32,5.33-3.13a51.72,51.72,0,0,0,7.53.26,46.2,46.2,0,0,0,2,5.24c-12.17,5.48-15.53,14.63-10.76,26.55-4.14.18-8.25-.87-10.69.69-9.4,6-19.78,7.37-30.43,8.15-3.76.28-7.56.3-11.27.9a150.76,150.76,0,0,0-18.55,3.73c-8.6,2.54-16.83,6.39-25.5,8.6-10.09,2.58-20.49,4-30.75,5.91.07.64.15,1.28.23,1.92h52l.05,1-26.28,9.22c0,.86.08,1.71.11,2.57l141.62,5.39v2.82l-59.27,12.09c16.21,1.69,32.66,5.92,48.64,4.56,2.78-.23,5.57-.45,8.36-.64h40.77l0,1-26.28,9.22c0,.86.08,1.71.11,2.57l141.62,5.39v2.82l-59.27,12.09c16.21,1.69,32.66,5.92,48.64,4.56,38-3.22,76.46-2.44,113.87-11.5,2.36-.57,4.68-1.35,8.34-2.42-7.53-8.12-20.2-6.85-23.82-17l215.15-22.4.17-2.36c-3-.58-6.08-1.38-9.15-1.69-18.35-1.82-36.88-2.51-55-5.72-8.59-1.52-19.62-.82-25-10.94,7.15-9.63,11.49-17.68,13.11-24.56a64.87,64.87,0,0,1,10.66,2.48c2.13.7,4.66.33,7,.22,17.67-.81,35.32-1.79,53-2.5,32.43-1.3,64.87-2.42,97.3-3.69q42.11-1.65,84.19-3.49c5.21-.23,10.41-.71,15.62-1.07l-.09-2c-10.84-3.78-22-3.94-33.44-2.94-4.3.38-9.15.73-13-.8-23.13-9.24-46.69-9.36-70.68-4.69-2.37.46-5.35.45-7.42-.6-1.87-1-3.71-1.94-5.52-2.94,3.11-.09,6.25-.35,9.43-.74,15.27-1.87,25.71-10.24,32.19-24.09.74-1.59,3.64-3.32,5.33-3.13,15.87,1.77,29.72-4.21,43.14-11.23,9.33-4.88,16.35-12.19,17.41-23.4.45-4.81,3.11-5.88,7.27-6.07,4.62-.21,10.21.55,13.65-1.73,10.52-7,22-9.32,34.13-10.88,3.72-.48,7-4.32,10.5-6.62-3.71-1.85-7.29-4.07-11.16-5.47-4.27-1.53-10.51-.83-12.94-3.64a42.07,42.07,0,0,0-6.38-6.06c15.14-.53,30.22-5.13,45.29-12.77,2.23-1.13,5.64-1.68,7.85-.82,29.12,11.35,55.56,6.91,79.72-12.7,1.62-1.32,4.16-2.51,6.1-2.28a45.43,45.43,0,0,0,13.26-.37c22.14,5,44.11.3,66.07-10.83,2.23-1.13,5.64-1.68,7.85-.82,29.12,11.35,55.56,6.91,79.72-12.7,1.62-1.32,4.16-2.51,6.1-2.28,17.55,2.07,33.68-5.83,42.31-21.1,10.27-18.15,1.27-36.06-19.33-38.52a28.21,28.21,0,0,1-4-1.2c2.9-12.81.61-23.76-7.65-32.53q5.13-2.1,10.26-4.7c2.23-1.13,5.64-1.69,7.85-.83,29.13,11.36,55.56,6.92,79.72-12.69,1.63-1.32,4.16-2.52,6.1-2.29,17.55,2.07,33.68-5.83,42.32-21.09C1742.65,998.56,1733.64,980.65,1713,978.19Zm-1161,34.59c.59,1.12,1.22,2.23,1.9,3.33a19.09,19.09,0,0,1-3.29-3.47Zm1,8.58a54.52,54.52,0,0,0-8.28.68c1.08-.39,2.15-.81,3.19-1.26,2.26-1,4.14-2.82,6.18-4.29h0c.75,1.64,1.49,3.28,2.26,5C555.38,1021.41,554.28,1021.35,553.11,1021.36Zm6.25-514.17c2.5-1,5-2,7.5-3.17C564.81,506.29,562.27,507,559.36,507.19Zm30.85,615.43a27.74,27.74,0,0,0-4.11-5.87,29.63,29.63,0,0,0-5.48-4.28c2.69-.07,5.39-.13,8.08-.16a40.07,40.07,0,0,0,3.1,9.53C591.25,1122.09,590.73,1122.35,590.21,1122.62Zm24.55,78.06-.66-.94,6.48-.24Zm770.43-957.51c.11.44.22.89.32,1.36l-18.33,5.15a25.13,25.13,0,0,0,9.64-5.78A68.48,68.48,0,0,0,1385.19,243.17ZM712.6,1220.08h1.29l-.22.35a10.37,10.37,0,0,0-1.41,4.15l-.67.08C712,1223.09,712.33,1221.58,712.6,1220.08Zm-8.25,144a44.26,44.26,0,0,1-10.58,4.89,12.65,12.65,0,0,1-4.39-5.94l24.66-2.57c.28,1,.6,1.93,1,2.93C710.9,1363.57,706.79,1362.52,704.35,1364.08Zm15-154.09-5.91,3a37.33,37.33,0,0,0-.24-6c2.75-.53,5.5-1.09,8.25-1.71C720.74,1206.83,720.05,1208.42,719.32,1210Zm89.23,23c-.3-.7-.57-1.42-.81-2.15l2-.12c.35,1.16.74,2.32,1.19,3.46Zm91.35-438.7a82.19,82.19,0,0,0-18.75.37c-.1-.48-.19-1-.28-1.45,6.17-.91,12.34-2.11,18.52-3.64a14.94,14.94,0,0,1,3-.4C901.56,790.87,900.73,792.56,899.9,794.34Zm23.16,455.45c2.47,0,4.92.12,7.34.33a38.64,38.64,0,0,0,1.45,8.43C929,1255.75,926.09,1252.79,923.06,1249.79Zm265.35-702.46q1.83-2.61,3.31-5.21a30,30,0,0,0,1.34,4.55,6,6,0,0,1,.27,1A45.38,45.38,0,0,0,1188.41,547.33Zm26-31.23c-7-.28-12.83,1.91-16.88,5.68a33.81,33.81,0,0,0-.38-4.58c4.6-.89,9.32-1.39,14-1.88,5-.52,10.07-.7,15.12-.88C1223.08,516.61,1219,516.28,1214.44,516.1Zm12.14-18c-7.27,1.1-12.15-2-19.23-7.71,6.12-1.09,11.7-3,16.8-4a20.24,20.24,0,0,0,2.54,11.66Zm199.78,344.66c.3,1.14.64,2.33.91,3.61l-1.41.39A26.66,26.66,0,0,0,1426.36,842.78Z"/>
</svg>
