<svg id="Layer_1" data-name="Layer 1" xmlns="http://www.w3.org/2000/svg" viewBox="0 0 1642.43 1277.99">
  <title>clouds</title>
  <g>
    <path d="M257.71,793.89c8.86,5.89,16.52,5.71,24.27,5.43,12.2-.43,24.4-.74,36.6-1,22.36-.49,44.83,0,66.51-7,5.39-1.75,10.86-3.3,16.29-4.94l.7,2.23c-7.77,2.56-15.56,5-23.29,7.71-20.45,7-39.89,17.65-62.71,16-3.66-.27-7.61,3.41-11.43,5.26l1,2.71c66.66-1.37,133.45,1.94,199.86-8.12.11.76.22,1.52.34,2.28l-35.23,9.36.35,2.46c84.52-1.39,169.06-1.78,253.47-6.86l.27-3.54L658.21,807c14.51,0,28.78,1.57,43.06,3.15a31.92,31.92,0,0,0,5.44.15q45.59-2.82,91.15-5.74a44.6,44.6,0,0,0,5.88-1.16c-1.82-2.2-3.48-3.12-5.16-3.16-19-.48-38-.54-57-1.34a60.59,60.59,0,0,1-19.53-3.73c-8.94-3.56-17.66-5.5-27.34-4.54-4.8.47-9.81-1.16-15.91-2,5.12-7.92,3.65-13.23-2.25-17.7a6.43,6.43,0,0,1-2-3.91c-1.8-12.85-6-17-18.83-17.16-6.09-.06-12.19,1.11-17.71,1.67-2.61-4.3-4.43-8.82-7.57-12.07s-7.78-5.53-11.74-8.2c.38-.65.53-1.27.9-1.48,25.54-14.34,24.17-44.59,6.59-60.76-1.58-1.46-2.28-4-3.06-6.18-4.58-12.6-12.39-18.87-25.68-18.78-19,.13-34,9.45-47.43,21.94-1.46,1.37-3,3.44-3.13,5.25-.14,2.72,1,5.49,1.72,8.84l-18.33,5.15c8.59-3,13.67-8.46,15.83-17.4.71-3,3.69-5.67,6.22-7.8,3.88-3.24,5.21-6.8,3.85-11.68-1-3.75-1.39-7.69-2.41-11.45-4.73-17.46-22-30.4-38.74-29.16-16.45,1.22-30.14,15.42-32.87,33.66-.43,2.86-2.68,7.94-3.55,7.83-5.44-.7-11.49,5.68-16.54-2.61-7.36-12.1-26.09-16.88-41.42-12-14.64,4.61-22.86,15.83-23.09,31.57-.07,4.53,0,9.07,0,13.85-11.79-8.46-20.74-8.88-26.59,0-3.39,5.14-5,11.9-5.85,18.15-.75,5.67.64,11.62,1.13,17.9-6.54-3.6-12.33-7.68-18.75-10.14A22.85,22.85,0,0,0,318.91,717c-6.2,12-3.47,23.89,6.81,31.37a8.71,8.71,0,0,1,2.94,6.2c0,.93-3.41,2.59-5.38,2.76-7.14.64-11.25,4.31-9,10.85,1.53,4.45,6.2,8.37,10.37,11.16,3.26,2.19,7.92,2.3,12.78,3.54-14,1.21-26.83,1.82-39.53,3.57S272.46,791.1,257.71,793.89ZM430,1033.16c-.85.32-1.09.51-1.32.48a17.46,17.46,0,0,1-3.07-.43c-12.22-3.52-23.13-2.28-32,8a7.85,7.85,0,0,1-6.16,2c-28.17-4.62-53.48,7.44-79.82,13.44-.2,0-.23.84-.74,2.91,20.41.76,40.51,1.77,60.61,2.16,16.88.32,34.13-2.29,50.58.36,23.82,3.84,47.54,5,71.51,5.12a52.84,52.84,0,0,1,16.68,2.61c22.77,7.86,46,10,70,8.81a516,516,0,0,1,62.18.55c13.65,1,26.9,1.16,40.29-1.67,20.47-4.31,40.92-9.85,62-3,2.13.69,4.66.32,7,.22,17.67-.81,35.32-1.79,53-2.51,32.43-1.3,64.87-2.41,97.3-3.69q42.11-1.65,84.19-3.49c5.21-.22,10.41-.7,15.62-1.07l-.09-2c-10.84-3.77-22-3.94-33.44-2.93-4.3.38-9.15.72-13-.81-23.13-9.24-46.69-9.36-70.68-4.68a12.36,12.36,0,0,1-7.42-.61c-7-3.53-13.65-7.62-19.08-10.73.6-5.21,3.08-11.34,1.42-16-2.66-7.47-10.46-8.51-17.86-8.1-15.06.83-27.72,5.3-31.87,21.4-5.23.52-10,.43-14.45,1.56-12.86,3.24-21.78-5.19-29.32-12.16-6.42-5.93-11.9-10.13-20.58-10.15-2,0-5.22-.94-5.88-2.37-3.42-7.37-9.41-8-16.34-7.67-3.29.16-6.64-.8-10-1.22-5.3-.67-10.62-1.2-15.9-2-2.89-.44-6.39-.48-8.43-2.15-5.34-4.36-10-9.51-15.34-14.71,4.14-16.53.85-21.93-19.41-30.54a3.89,3.89,0,0,1-.35-1.47c3.08-19.17,0-23.95-19-29.85a7,7,0,0,1-4.09-3.81c-2.82-9-9.61-11.86-18-12-4.33-.07-8.68.75-13,1.16l-.16-1.58,23.36-2c-5.07-6.64-8.31-12.63-13.11-16.84-13.67-12-30.17-17.2-48.22-17.13-19.74.09-36.33,11.17-42,28-1.62,4.83-2,10.08-3,15.56-2-.55-4-1.12-5.92-1.62-12.08-3.06-26.49,1.72-31.48,13-4.53,10.28-7.84,21-14.08,30.57-2.25,3.47-1.46,8.91-2.06,13.45-16.51-2.82-24.47-.35-29.44,9.67-6.56,13.22.29,21.51,12.27,27.48C429.69,1017,427.22,1022,430,1033.16ZM609.92,574.6l.47,2.92L655.58,575c-4.18,3-8.22,6-12.27,8.93l1.17,2.22c39.21,3.85,78.17,5.14,116.22-8.87,7.17-2.63,15.13-3.46,22.81-4.27,9.29-1,18.7-.75,28-1.58,7-.63,13.93-2.1,20.89-3.19l.12-3c-11.18-3.27-20.94-11.39-33.57-9.48-7.28,1.1-12.15-2-19.23-7.7,10.34-1.84,19.16-6,26.65-4.25,20.11,4.57,39.16,2.55,58.44-3.22a102.12,102.12,0,0,1,21.86-4.2c11.67-.81,23.42-.16,35.1-.86,5.07-.3,10-2.41,15-3.7l-.15-2.55c-2.8-1.05-5.53-2.6-8.43-3.09-11.78-2-23.61-3.54-35.4-5.42-2.42-.38-6-.72-6.89-2.29-5.19-9.12-13.4-12.29-24.16-12.51,10-14.24,12.45-28.34,4.12-43.2-8-14.21-19.23-16.42-32.43-6.82a9.46,9.46,0,0,1-7.78.84c-8.07-3.25-15.32-2.33-21.37,4.12-2.77,3-4.9,6.51-7.78,10.42-3.56-9.65-11.21-11.83-20-11-.28-2.62-.47-4.16-.6-5.7-1.52-18.49-8.63-25.74-26.87-28.38-2.44-.35-5.29-3-6.59-5.28-8.16-14.58-18.75-18.13-32.71-10.49-35.15-22.52-55.87-15.71-74.5,24.49-33.18-2.48-43.76,8.16-40.54,41.53-16.58-9.65-33.6-14.49-48.94.31-12.84,12.38-12.5,27.65-4.16,43.16-15.58,6.74-32.48,9.51-45.05,22h85l-38.4,19.51.58,3.22H621l.38,2.67ZM873.54,729.43c-4.36,4.31-10.87,7.12-3.35,13.3l-13,1.57c5.87-5.64,3.48-10.88-1.28-13.88-5-3.15-11.24-5.89-17-6-10.85-.21-20.47,5.17-27.22,13.31-3.51,4.23-3.74,11.17-5.85,18.2-10.8,0-24.23-2.72-37.78,6.6,4.36,1.72,6.76,3.31,9.27,3.54,19.94,1.86,39.87,4.27,59.86,4.9,18.42.58,36.91-1.2,55.38-1.31,34.87-.21,69.75.27,104.62,0,16.62-.15,33.37-3.19,49.8-1.8a434.92,434.92,0,0,0,63.86.29c23.24-1.43,46.63-.38,70-.33,9.89,0,19.78.5,29.66.34,17.89-.3,35.79-.73,53.68-1.45,30.14-1.22,60.26-2.69,90.39-4.14.91,0,1.78-.9,3.73-1.94-19.28-1.5-37.16-2.74-55-4.43a10.92,10.92,0,0,1-7.33-4.13c-5.33-8.23-12.7-12-22.25-12.07-3.5,0-7,0-10.41,0-.83-11.34-4.7-15.15-15.29-15.1-12.65.07-23.61,3.89-30.4,16.19-3.89-2.8-7.58-4.8-10.42-7.65-5.58-5.6-9.65-14.3-16.24-16.91a243,243,0,0,1-25.63-11.78c-7.65-4.09-17.11,4-20.13,14.74-.7,2.48-1.36,5-2.08,7.58l-9.37-10.59c4.22-12,4-13.48-4.12-26.32,2.32-4.93,5.66-9.33,6.43-14.14,2.23-14-13.78-33.68-28-34.15-4.9-.16-10,3-14.86,5-2.52,1-4.64,3.44-7.18,3.86-5.23.89-10.61.86-16.38,1.23a59.34,59.34,0,0,0-4.75-5.18,68.37,68.37,0,0,0-6.08-4.38c3.29-11.07,2-13.71-11-22.73,1.21-2.47,2.61-4.92,3.64-7.52,3-7.7,1.46-16.44-5.35-19.13-10-3.92-20.6-7-31.19-8.14-7.22-.74-14.66,3.83-22.57,1.26-2-.64-5,1-7.24,2.17-8.18,4.51-12.1,11.81-12.5,20.83-15.18,5.37-16.15,20-2.43,34.13-1.35.84-3.29,1.33-3.85,2.5-3.35,6.92-8.82,6.35-15.4,6.08-17.68-.71-27.65,14.22-21.38,30.58.66,1.71.57,4.57-.46,5.9-3.34,4.36-1.91,7.54,1.34,11a32.91,32.91,0,0,1,3.52,5.09l-23.47,2.22c-7.07-4.29-22.28-3.1-31.88,4.82C872.72,716.14,868.19,721.45,873.54,729.43ZM1225.68,398.3c-2.92-6.3-5-13.76-9.3-19.46-10.75-14.09-25.87-17.86-42.64-13.93-17.7,4.14-30.66,14.21-35.11,32.67-1.26,5.21-3,6.92-8.69,6.93-11.86,0-22.82,2.78-27.79,15.82-.5,1.32-3.74,2.4-5.63,2.28-17.07-1.09-30.42,3.63-35,20.93-7.15.8-13.84.48-19.79,2.44-14,4.6-23.05,15.11-28,28.55-2.49,6.74-6,8.9-12.87,9.55s-13.43,3.5-20.14,5.39l.45,3.33c12.22,8.71,27,5.86,40.64,7,1.06,13.64,5.43,18.11,19.11,21,2.33.48,5.53,2.12,6.26,4,4.81,12.5,16.57,18.33,29.26,13.92,2.35-.82,4.65-1.75,7.11-2.67,3.45,26,46.44,37.42,79.91,6.41,1.71,1.44,3.42,3,5.22,4.39,15.55,12.29,33.47,14.73,52.45,12.4,15.27-1.87,25.71-10.25,32.19-24.1.74-1.59,3.64-3.32,5.33-3.13,15.87,1.78,29.72-4.2,43.14-11.23,9.33-4.88,16.34-12.19,17.41-23.4.45-4.8,3.11-5.87,7.27-6.06,4.62-.22,10.21.55,13.65-1.73,10.52-7,22-9.32,34.13-10.88,3.72-.48,7-4.32,10.5-6.62-3.71-1.86-7.29-4.08-11.16-5.47-4.27-1.53-10.51-.83-12.94-3.65-10.84-12.59-25.26-15.53-40.39-17.85a13.27,13.27,0,0,1-8.16-5.37c-6.9-10.84-16.64-17.62-29-19-6.74-.76-9.54-3.52-13.39-8.61a35,35,0,0,0-17.55-11.71C1243.6,398.12,1234.27,398.86,1225.68,398.3ZM871.55,249.77c-1.56.18-2.57.4-3.59.42-28.82.39-45.32,15.4-48.69,43.85-.26,2.16-2.8,4.19-4.58,6-4.58,4.66-11.25,8.32-13.65,13.87-6.39,14.75-5.64,30.16,2.15,44.44,14,25.61,41.93,32.79,66.71,17.85,1.69-1,5.06-.82,6.87.2,30.54,17.16,60.66,14,90.76-1.21,2.23-1.13,5.64-1.69,7.85-.83,29.12,11.36,55.56,6.92,79.72-12.69,1.62-1.32,4.16-2.52,6.1-2.29,17.55,2.07,33.68-5.83,42.31-21.09,10.27-18.16,1.27-36.07-19.33-38.53a28,28,0,0,1-4-1.19c3.41-15.1-.33-27.63-12.62-37-11.62-8.88-25.48-9-39.33-8.53,4.24-27-7-39.76-33.38-39.86a46.3,46.3,0,0,0-32,11.83c-14-21.06-28-26.38-52-20.21C887.28,210.83,873.33,226.62,871.55,249.77Zm139.36,666.39c-12.16,5.48-15.52,14.64-10.76,26.55-4.14.19-8.25-.86-10.69.7-9.4,6-19.77,7.36-30.42,8.14-3.76.28-7.57.31-11.28.91a152.62,152.62,0,0,0-18.55,3.72c-8.6,2.54-16.83,6.4-25.49,8.61-10.1,2.57-20.49,4-30.76,5.9.08.64.15,1.28.23,1.92h52l0,1L899,982.83l.11,2.57,141.61,5.38v2.83l-59.27,12.08c16.21,1.69,32.66,5.93,48.64,4.57,38-3.23,76.46-2.44,113.87-11.51,2.37-.57,4.68-1.35,8.34-2.41-7.53-8.12-20.2-6.85-23.82-17L1343.64,957c.06-.79.11-1.57.17-2.36-3-.57-6.07-1.38-9.15-1.68-18.34-1.83-36.88-2.52-55-5.73-8.6-1.52-19.63-.82-25-10.94,15.88-21.37,17.94-35,7-45.09-11.88-10.88-28.56-7.82-45.52,7.5l-19.26-8.41c3.61-12.52,1-25.28-8.87-36.12s-22.3-15.55-37.27-13.13c4.64-17.64.49-30.43-11.39-37.36-12.59-7.34-23.6-4.21-39.85,11.58-1.91-.93-4-2-6-3-10.13-4.89-21.58-4.24-28.86,4-6.17,7-12.37,15.43-14.51,24.21-2.49,10.25-.58,21.58-.58,32.23l-15.09,10.9c-6.28-2.24-14.14-4.55-20.51,2.34C1005.66,894.84,1005.85,905.15,1010.91,916.16ZM665.32,306.69c-3.25-12.94-8-18.4-22.15-22-6.68-1.7-13.91-1.14-20.79-2.23-3.47-.55-6.87-2.21-10-3.89-4.32-2.29-8.09-5.91-12.61-7.43-6.59-2.23-13.7-2.85-20.45-4.69-2.26-.61-5.53-2.57-5.89-4.39-4-20.56-25.36-29-41.83-26.93-3.22.4-6.46.55-9.68.82-1.79-23-14-35.35-39.42-37.69-8.52-.79-18.17,1.77-26.06,5.46-11,5.14-15.43,16.1-16.65,28-31.42-8.19-70.91,14.8-63.71,56.34-2.57.22-5.11.37-7.64.65-16.77,1.83-30.47,9.56-39.47,23.63-4.24,6.64-8.58,9.7-16.18,9.16-4.39-.31-9.08-.68-13.21.47-8.39,2.35-16.86,5-24.59,8.91-5.6,2.83-5.15,8.23.74,10.5a63.51,63.51,0,0,0,19.58,4.28c10.63.5,21.33-.58,32-.46,3.72,0,8.32.56,11,2.74,18.5,15.19,40.23,14.92,62.23,14.17,4.45-.15,9.34-.27,13.35,1.32,27.9,11.09,55.37,5.05,76.68-17.06a8.16,8.16,0,0,1,6.74-1.91c29.8,8.49,59.56,8.28,89.53.85,4-1,8.64,0,12.93.52,12.11,1.37,24.18,4,36.29,4.18,13.31.22,26.27-2.44,37.55-10.91,4.11-3.09,9.57-4.91,14.69-6,10.41-2.21,21.08-3.16,31.49-5.38,4-.84,7.5-3.73,11.23-5.69l-.29-2.19c-2.3-.86-4.56-2.29-6.91-2.49-9.55-.81-19.14-1.21-28.7-1.83-2.78-.17-5.69-.1-8.27-.95C679.93,312.34,673.23,309.64,665.32,306.69Z" style="fill: #fff"/>
    <path d="M257.71,793.89c14.75-2.79,27.39-5.69,40.2-7.46s25.55-2.36,39.53-3.57c-4.86-1.24-9.52-1.35-12.78-3.54-4.17-2.79-8.84-6.71-10.37-11.16-2.26-6.54,1.85-10.21,9-10.85,2-.17,5.4-1.83,5.38-2.76a8.71,8.71,0,0,0-2.94-6.2c-10.28-7.48-13-19.34-6.81-31.37a22.85,22.85,0,0,1,28.62-11.07c6.42,2.46,12.21,6.54,18.75,10.14-.49-6.28-1.88-12.23-1.13-17.9.83-6.25,2.46-13,5.85-18.15,5.85-8.87,14.8-8.45,26.59,0,0-4.78-.06-9.32,0-13.85.23-15.74,8.45-27,23.09-31.57,15.33-4.83,34.06-.05,41.42,12,5.05,8.29,11.1,1.91,16.54,2.61.87.11,3.12-5,3.55-7.83,2.73-18.24,16.42-32.44,32.87-33.66,16.73-1.24,34,11.7,38.74,29.16,1,3.76,1.37,7.7,2.41,11.45,1.36,4.88,0,8.44-3.85,11.68-2.53,2.13-5.51,4.85-6.22,7.8-2.16,8.94-7.24,14.39-15.83,17.4l18.33-5.15c-.72-3.35-1.86-6.12-1.72-8.84.09-1.81,1.67-3.88,3.13-5.25,13.39-12.49,28.47-21.81,47.43-21.94,13.29-.09,21.1,6.18,25.68,18.78.78,2.16,1.48,4.72,3.06,6.18,17.58,16.17,18.95,46.42-6.59,60.76-.37.21-.52.83-.9,1.48,4,2.67,8.49,4.82,11.74,8.2s5,7.77,7.57,12.07c5.52-.56,11.62-1.73,17.71-1.67,12.84.14,17,4.31,18.83,17.16a6.43,6.43,0,0,0,2,3.91c5.9,4.47,7.37,9.78,2.25,17.7,6.1.83,11.11,2.46,15.91,2,9.68-1,18.4,1,27.34,4.54a60.59,60.59,0,0,0,19.53,3.73c19,.8,38,.86,57,1.34,1.68,0,3.34,1,5.16,3.16a44.6,44.6,0,0,1-5.88,1.16q-45.57,2.94-91.15,5.74a31.92,31.92,0,0,1-5.44-.15C687,808.57,672.72,807,658.21,807l66.49,8.8-.27,3.54C640,824.42,555.48,824.81,471,826.2l-.35-2.46,35.23-9.36c-.12-.76-.23-1.52-.34-2.28-66.41,10.06-133.2,6.75-199.86,8.12l-1-2.71c3.82-1.85,7.77-5.53,11.43-5.26,22.82,1.69,42.26-8.94,62.71-16,7.73-2.66,15.52-5.15,23.29-7.71l-.7-2.23c-5.43,1.64-10.9,3.19-16.29,4.94-21.68,7-44.15,6.52-66.51,7-12.2.28-24.4.59-36.6,1C274.23,799.6,266.57,799.78,257.71,793.89Z"/>
    <path d="M430,1033.16c-2.78-11.2-.31-16.17,11.82-22.42-12-6-18.83-14.26-12.27-27.48,5-10,12.93-12.49,29.44-9.67.6-4.54-.19-10,2.06-13.45,6.24-9.61,9.55-20.29,14.08-30.57,5-11.32,19.4-16.1,31.48-13,2,.5,3.91,1.07,5.92,1.62,1-5.48,1.38-10.73,3-15.56,5.68-16.86,22.27-27.94,42-28,18.05-.07,34.55,5.14,48.22,17.13,4.8,4.21,8,10.2,13.11,16.84l-23.36,2,.16,1.58c4.34-.41,8.69-1.23,13-1.16,8.42.14,15.21,3,18,12a7,7,0,0,0,4.09,3.81c19,5.9,22.1,10.68,19,29.85a3.73,3.73,0,0,0,.36,1.47c20.25,8.61,23.54,14,19.4,30.54,5.32,5.2,10,10.35,15.34,14.71,2,1.67,5.54,1.71,8.43,2.15,5.28.8,10.6,1.33,15.9,2,3.33.42,6.68,1.38,10,1.22,6.93-.33,12.92.3,16.34,7.67.66,1.43,3.85,2.36,5.88,2.37,8.68,0,14.16,4.22,20.58,10.15,7.54,7,16.46,15.4,29.32,12.16,4.45-1.13,9.22-1,14.45-1.56,4.15-16.1,16.81-20.57,31.87-21.4,7.4-.41,15.2.63,17.86,8.1,1.66,4.65-.82,10.78-1.42,16,5.43,3.11,12.11,7.2,19.08,10.73a12.36,12.36,0,0,0,7.42.61c24-4.68,47.55-4.56,70.68,4.68,3.84,1.53,8.69,1.19,13,.81,11.41-1,22.6-.84,33.44,2.93l.09,2c-5.21.37-10.41.85-15.62,1.07q-42.09,1.8-84.19,3.49c-32.43,1.28-64.87,2.39-97.3,3.69-17.67.72-35.32,1.7-53,2.51-2.33.1-4.86.47-7-.22-21.07-6.87-41.52-1.33-62,3-13.39,2.83-26.64,2.63-40.29,1.67a516,516,0,0,0-62.18-.55c-24,1.23-47.23-1-70-8.81a52.84,52.84,0,0,0-16.68-2.61c-24-.1-47.69-1.28-71.51-5.12-16.45-2.65-33.7,0-50.58-.36-20.1-.39-40.2-1.4-60.61-2.16.51-2.07.54-2.86.74-2.91,26.34-6,51.65-18.06,79.82-13.44a7.85,7.85,0,0,0,6.16-2c8.88-10.27,19.79-11.51,32-8a17.46,17.46,0,0,0,3.07.43C428.91,1033.67,429.15,1033.48,430,1033.16Zm132.7-51.05c-2.09,1.49-4,3.38-6.3,4.38-3.92,1.71-8.08,2.86-12.15,4.24l.43.64L565,987.59c-.83-1.85-1.63-3.62-2.43-5.38-7.27-11.48-9.05-23.73-5.17-36.78l20.71-16.08c-7.58,4-18.64,4.41-20.52,16.26C550.18,955,553,974.63,562.7,982.11Z"/>
    <path d="M609.92,574.6l11.49-7.13L621,564.8H543.76l-.58-3.22,38.4-19.51h-85c12.57-12.51,29.47-15.28,45.05-22-8.34-15.51-8.68-30.78,4.16-43.16,15.34-14.8,32.36-10,48.94-.31-3.22-33.37,7.36-44,40.54-41.53,18.63-40.2,39.35-47,74.5-24.49,14-7.64,24.55-4.09,32.71,10.49,1.3,2.32,4.15,4.93,6.59,5.28,18.24,2.64,25.35,9.89,26.87,28.38.13,1.54.32,3.08.6,5.7,8.79-.84,16.44,1.34,20,11,2.88-3.91,5-7.46,7.78-10.42,6-6.45,13.3-7.37,21.37-4.12a9.46,9.46,0,0,0,7.78-.84c13.2-9.6,24.46-7.39,32.43,6.82,8.33,14.86,5.87,29-4.12,43.2,10.76.22,19,3.39,24.16,12.51.9,1.57,4.47,1.91,6.89,2.29,11.79,1.88,23.62,3.46,35.4,5.42,2.9.49,5.63,2,8.43,3.09l.15,2.55c-5,1.29-10,3.4-15,3.7-11.68.7-23.43,0-35.1.86a102.12,102.12,0,0,0-21.86,4.2c-19.28,5.77-38.33,7.79-58.44,3.22-7.49-1.7-16.31,2.41-26.65,4.25,7.08,5.73,11.95,8.8,19.23,7.7,12.63-1.91,22.39,6.21,33.57,9.48l-.12,3c-7,1.09-13.89,2.56-20.89,3.19-9.31.83-18.72.61-28,1.58-7.68.81-15.64,1.64-22.81,4.27-38.05,14-77,12.72-116.22,8.87L643.31,584c4.05-3,8.09-5.9,12.27-8.93l-45.19,2.49Z"/>
    <path d="M873.54,729.43c-5.35-8-.82-13.29,5-18,9.6-7.92,24.81-9.11,31.88-4.82l23.47-2.22a32.91,32.91,0,0,0-3.52-5.09c-3.25-3.42-4.68-6.6-1.34-11,1-1.33,1.12-4.19.46-5.9-6.27-16.36,3.7-31.29,21.38-30.58,6.58.27,12,.84,15.4-6.08.56-1.17,2.5-1.66,3.85-2.5-13.72-14.08-12.75-28.76,2.43-34.13.4-9,4.32-16.32,12.5-20.83,2.21-1.21,5.25-2.81,7.24-2.17,7.91,2.57,15.35-2,22.57-1.26,10.59,1.1,21.23,4.22,31.19,8.14,6.81,2.69,8.39,11.43,5.35,19.13-1,2.6-2.43,5-3.64,7.52,13,9,14.31,11.66,11,22.73a68.37,68.37,0,0,1,6.08,4.38,59.34,59.34,0,0,1,4.75,5.18c5.77-.37,11.15-.34,16.38-1.23,2.54-.42,4.66-2.85,7.18-3.86,4.88-2,10-5.16,14.86-5,14.22.47,30.23,20.19,28,34.15-.77,4.81-4.11,9.21-6.43,14.14,8.11,12.84,8.34,14.29,4.12,26.32L1143,727c.72-2.61,1.38-5.1,2.08-7.58,3-10.78,12.48-18.83,20.13-14.74a243,243,0,0,0,25.63,11.78c6.59,2.61,10.66,11.31,16.24,16.91,2.84,2.85,6.53,4.85,10.42,7.65,6.79-12.3,17.75-16.12,30.4-16.19,10.59-.05,14.46,3.76,15.29,15.1,3.41,0,6.91,0,10.41,0,9.55.08,16.92,3.84,22.25,12.07a10.92,10.92,0,0,0,7.33,4.13c17.84,1.69,35.72,2.93,55,4.43-2,1-2.82,1.9-3.73,1.94-30.13,1.45-60.25,2.92-90.39,4.14-17.89.72-35.79,1.15-53.68,1.45-9.88.16-19.77-.32-29.66-.34-23.32,0-46.71-1.1-70,.33a434.92,434.92,0,0,1-63.86-.29c-16.43-1.39-33.18,1.65-49.8,1.8-34.87.3-69.75-.18-104.62,0-18.47.11-37,1.89-55.38,1.31-20-.63-39.92-3-59.86-4.9-2.51-.23-4.91-1.82-9.27-3.54,13.55-9.32,27-6.56,37.78-6.6,2.11-7,2.34-14,5.85-18.2,6.75-8.14,16.37-13.52,27.22-13.31,5.76.11,12,2.85,17,6,4.76,3,7.15,8.24,1.28,13.88l13-1.57C862.67,736.55,869.18,733.74,873.54,729.43Z"/>
    <path d="M1225.68,398.3c8.59.56,17.92-.18,26.42,2.15a35,35,0,0,1,17.55,11.71c3.85,5.09,6.65,7.85,13.39,8.61,12.39,1.4,22.13,8.18,29,19a13.27,13.27,0,0,0,8.16,5.37c15.13,2.32,29.55,5.26,40.39,17.85,2.43,2.82,8.67,2.12,12.94,3.65,3.87,1.39,7.45,3.61,11.16,5.47-3.49,2.3-6.78,6.14-10.5,6.62-12.13,1.56-23.61,3.91-34.13,10.88-3.44,2.28-9,1.51-13.65,1.73-4.16.19-6.82,1.26-7.27,6.06-1.07,11.21-8.08,18.52-17.41,23.4-13.42,7-27.27,13-43.14,11.23-1.69-.19-4.59,1.54-5.33,3.13-6.48,13.85-16.92,22.23-32.19,24.1-19,2.33-36.9-.11-52.45-12.4-1.8-1.42-3.51-3-5.22-4.39-33.47,31-76.46,19.58-79.91-6.41-2.46.92-4.76,1.85-7.11,2.67-12.69,4.41-24.45-1.42-29.26-13.92-.73-1.9-3.93-3.54-6.26-4-13.68-2.86-18.05-7.33-19.11-21-13.67-1.18-28.42,1.67-40.64-7l-.45-3.33c6.71-1.89,13.32-4.73,20.14-5.39s10.38-2.81,12.87-9.55c5-13.44,14-23.95,28-28.55,6-2,12.64-1.64,19.79-2.44,4.6-17.3,18-22,35-20.93,1.89.12,5.13-1,5.63-2.28,5-13,15.93-15.78,27.79-15.82,5.69,0,7.43-1.72,8.69-6.93,4.45-18.46,17.41-28.53,35.11-32.67,16.77-3.93,31.89-.16,42.64,13.93C1220.73,384.54,1222.76,392,1225.68,398.3Z"/>
    <path d="M871.55,249.77c1.78-23.15,15.73-38.94,39.25-45,24-6.17,38.06-.85,52,20.21a46.3,46.3,0,0,1,32-11.83c26.39.1,37.62,12.89,33.38,39.86,13.85-.44,27.71-.35,39.33,8.53,12.29,9.39,16,21.92,12.62,37a28,28,0,0,0,4,1.19c20.6,2.46,29.6,20.37,19.33,38.53-8.63,15.26-24.76,23.16-42.31,21.09-1.94-.23-4.48,1-6.1,2.29-24.16,19.61-50.6,24.05-79.72,12.69-2.21-.86-5.62-.3-7.85.83-30.1,15.25-60.22,18.37-90.76,1.21-1.81-1-5.18-1.22-6.87-.2-24.78,14.94-52.73,7.76-66.71-17.85-7.79-14.28-8.54-29.69-2.15-44.44,2.4-5.55,9.07-9.21,13.65-13.87,1.78-1.81,4.32-3.84,4.58-6,3.37-28.45,19.87-43.46,48.69-43.85C869,250.17,870,250,871.55,249.77Z"/>
    <path d="M1010.91,916.16c-5.06-11-5.25-21.32,3-30.2,6.37-6.89,14.23-4.58,20.51-2.34l15.09-10.9c0-10.65-1.91-22,.58-32.23,2.14-8.78,8.34-17.2,14.51-24.21,7.28-8.27,18.73-8.92,28.86-4,2.07,1,4.13,2,6,3,16.25-15.79,27.26-18.92,39.85-11.58,11.88,6.93,16,19.72,11.39,37.36,15-2.42,27.4,2.31,37.27,13.13s12.48,23.6,8.87,36.12l19.26,8.41c17-15.32,33.64-18.38,45.52-7.5,11,10.06,8.93,23.72-7,45.09,5.38,10.12,16.41,9.42,25,10.94,18.09,3.21,36.63,3.9,55,5.73,3.08.3,6.1,1.11,9.15,1.68-.06.79-.11,1.57-.17,2.36l-215.15,22.4c3.62,10.14,16.29,8.87,23.82,17-3.66,1.06-6,1.84-8.34,2.41-37.41,9.07-75.88,8.28-113.87,11.51-16,1.36-32.43-2.88-48.64-4.57l59.27-12.08v-2.83L899.12,985.4l-.11-2.57,26.27-9.22,0-1h-52c-.08-.64-.15-1.28-.23-1.92,10.27-1.91,20.66-3.33,30.76-5.9,8.66-2.21,16.89-6.07,25.49-8.61a152.62,152.62,0,0,1,18.55-3.72c3.71-.6,7.52-.63,11.28-.91,10.65-.78,21-2.14,30.42-8.14,2.44-1.56,6.55-.51,10.69-.7C995.39,930.8,998.75,921.64,1010.91,916.16Z"/>
    <path d="M665.32,306.69c7.91,2.95,14.61,5.65,21.46,7.91,2.58.85,5.49.78,8.27.95,9.56.62,19.15,1,28.7,1.83,2.35.2,4.61,1.63,6.91,2.49l.29,2.19c-3.73,2-7.26,4.85-11.23,5.69-10.41,2.22-21.08,3.17-31.49,5.38-5.12,1.08-10.58,2.9-14.69,6C662.26,347.59,649.3,350.25,636,350c-12.11-.2-24.18-2.81-36.29-4.18-4.29-.49-8.91-1.52-12.93-.52-30,7.43-59.73,7.64-89.53-.85a8.16,8.16,0,0,0-6.74,1.91c-21.31,22.11-48.78,28.15-76.68,17.06-4-1.59-8.9-1.47-13.35-1.32-22,.75-43.73,1-62.23-14.17-2.65-2.18-7.25-2.69-11-2.74-10.66-.12-21.36,1-32,.46a63.51,63.51,0,0,1-19.58-4.28c-5.89-2.27-6.34-7.67-.74-10.5,7.73-3.9,16.2-6.56,24.59-8.91,4.13-1.15,8.82-.78,13.21-.47,7.6.54,11.94-2.52,16.18-9.16,9-14.07,22.7-21.8,39.47-23.63,2.53-.28,5.07-.43,7.64-.65-7.2-41.54,32.29-64.53,63.71-56.34,1.22-11.9,5.64-22.86,16.65-28,7.89-3.69,17.54-6.25,26.06-5.46C507.9,200.62,520.1,213,521.89,236c3.22-.27,6.46-.42,9.68-.82,16.47-2.08,37.8,6.37,41.83,26.93.36,1.82,3.63,3.78,5.89,4.39,6.75,1.84,13.86,2.46,20.45,4.69,4.52,1.52,8.29,5.14,12.61,7.43,3.16,1.68,6.56,3.34,10,3.89,6.88,1.09,14.11.53,20.79,2.23C657.29,288.29,662.07,293.75,665.32,306.69Z"/>
    <path d="M557.43,945.44c-3.9,13-2.12,25.29,5.15,36.77l.16-.14c-9.79-7.44-12.56-27.09-5.14-36.46Z" style="fill: #fff"/>
    <path d="M557.6,945.61c1.88-11.85,12.94-12.28,20.52-16.26l-20.7,16.08Z" style="fill: #fff"/>
    <path d="M562.58,982.21c.8,1.76,1.6,3.53,2.43,5.38l-20.33,3.78-.43-.64c4.07-1.38,8.23-2.53,12.15-4.24,2.3-1,4.21-2.89,6.32-4.4Z" style="fill: #fff"/>
  </g>
</svg>
