<svg id="Layer_1" data-name="Layer 1" xmlns="http://www.w3.org/2000/svg" viewBox="0 0 1366 768">
  <title>java</title>
  <g>
    <path d="M693.79,360c.5,1.53,1.39,4.28,2.3,7.06,3.59-1.14,7.12-3.2,10.58-3.08s7.58,1.63,7.52,6.48c-.07,5.88.73,11.91-5.87,15.79-7.81,4.59-8.73,8.44-5.35,16.46.51,1.22,1.41,2.3,1.83,3.55a19.72,19.72,0,0,1,.55,3.58c-7.42,5.34-13.86.31-20.24-1.37-6.85-1.81-11.37-6.6-11.21-15.38-3.53.65-6.69.51-9.06,1.81-5.59,3.06-10.1,1.59-14.73-1.85-3-2.27-6.44-4-9.56-6.18-4.95-3.45-7.82-3.48-10.28,1.83-3.65,7.93-8.64,10.19-16.82,7.28-2-.73-4.91.84-7.37,1.51-5.15,1.39-8.72.23-10.51-4.42-1.27-3.27-2.19-6.83-6.23-6.66a64.79,64.79,0,0,0-13.26,2.33c-1.28.33-2.17,2.21-3.87,4.07-1.91-3.53-3.42-6.3-5.49-10.08-2.18,1.56-4.13,3-6.15,4.39-6.45,4.31-12.47,7-21.25,4.76-9-2.25-18-7.6-28.81-3.49,3.44-9.37,11.45-7.38,17.92-9,.67-6.14,1.75-11.77,8-15.1,1.71-.92,1.81-4.86,3.14-8.86l-13.61,1.45c-1.34-5.35-3.47-10.3.49-16.54,2.65,1.21,5.28,2.2,7.7,3.55,4.9,2.72,9.37,3.09,13.58-1.33,1.36-1.42,3.23-2.34,4.75-3.62,5.28-4.45,5.53-7.54,1.07-12.5-.66-.73-1.6-1.22-2.25-2-4.25-4.87-4.21-10.31,0-14.13,4.75-4.27,10.9-4.29,15.14.11A28.36,28.36,0,0,1,570,315.3c4.73,7.67,7.58,8.52,15.12,4.39,6.7-3.67,6.35-3.41,10.7,2.34a57.89,57.89,0,0,0,10.67,10.24c3.67,2.87,6.31,6,6,10.82-.5,6.87,3.63,10.37,9.07,12.89q9.48,4.38,19.12,8.43c5,2.11,10,3.24,15.27.13,2.16-1.26,5.09-1.38,7.71-1.65C673.38,361.87,683.18,361,693.79,360Z"/>
    <path d="M356.2,297.24c4.19,4.11,9.26,8.77,14,13.78,3.59,3.8,2.33,7.74-2.49,10.23a124.8,124.8,0,0,0-13.56,7.85c-4.42,3.06-3.86,9.63.8,12.45,1.4.85,3.74.83,4.47,2,1.49,2.32,3,5.14,3,7.76,0,3.72-8.67,11.48-12.11,11.78-6.28.53-10.75-2.24-13.81-8.48a22.48,22.48,0,0,0-2.45-3.12c-3.1.71-7,.73-9.88,2.45-5,3-8.65,1.92-12.42-1.73-1.38-1.33-3-3-4.72-3.29-6.89-1.15-11.56-4.34-11.8-11.81-1.69-.11-2.95-.6-3.59-.17-8.13,5.5-16.88,3.89-25.94,3.42a88.2,88.2,0,0,1-31.27-7.66c1.67-1.38,3.27-3.18,5.26-4.24,5.09-2.69,7.63-6,5.31-12.1a8.42,8.42,0,0,1,.65-6.38c4.1-7,4.27-6.9,1.89-15.71l-9.83,2.28c-2.7-5.06-2.95-9.78.2-14.88,1.31.66,2.44.88,3,1.55,2.39,3.07,3.86,7.41,9,6.52s10.88-1.29,13.7-6.81c2.37-4.65,4.89-9.35,6.33-14.31,3.17-10.95,11.42-13.42,21.55-5.1-2.51,1.34-4.78,2.33-6.81,3.68-3.25,2.16-4.15,5.24-2.09,8.62,1.66,2.74,6.32,2.89,8.45-.65,4.9-8.08,10.23-5.93,16.89-2.68,6.2,3,13.13,4.54,19.61,7.05a32.07,32.07,0,0,1,8.6,4.84c3.27,2.66,6.39,3.35,10.05,1.31s7.59-2.67,9.81.94C357.29,288.77,356.2,292.45,356.2,297.24Z"/>
    <path d="M538.41,300.17c6.12,5.27,6.34,7.54.9,11.34a96.33,96.33,0,0,1-9.11,5c3.26,6.34,7.57-.18,11,2.05L532.76,330c-2.16-.21-4.85-1-7.32-.55a16.66,16.66,0,0,0-6.57,3.36c-1.23.91-1.55,3.45-2.78,3.92-8.64,3.23-7.15,9.9-6.31,16.67.57,4.6,1.26,9.44.38,13.87-.67,3.42-3.7,6.38-5.57,9.35-7.25-3-2.1-8.64-4.84-11.93-.41-.45-.9-1.38-1.29-1.35-8.06.8-13.36-2.39-17.17-9.76-2.43-4.69-7.16-7.8-13.52-8.5l-5.47,8.15c-1.86-1.54-3.17-3.05-4.82-3.86-2.21-1.1-5.15-2.82-6.9-2.11s-2.38,4.1-2.92,6.45c-.41,1.77.14,3.75.28,5.88l-17.56-.81c-6.18-8.37-5.24-7.59-13-1.21l-31.63-3.11L377,338.78l-12.85-6.89c11.38-5.3,16.68-15.77,27-19.81a19.26,19.26,0,0,1,6.5-1.39c5.33-.12,10.67.44,16,.12,3.33-.2,5.87.15,7.61,3.25.47.83,1.28,1.91,2.08,2.05,11.66,2,22.61,10.32,35.24,4.05,1.13-.57,2.87-1.08,3.84-.61,7.81,3.8,13.31-.05,18.29-5.35,4.15-4.42,8.4-2.26,12.88.53,1.59-5.65-3.4-7-4.65-11,.59-1.83,1.26-4.37,2.21-6.79,2.83-7.19,10.42-9.68,15.51-4.08s10.82,8.28,18.24,8.5c2.09.06,4.13,1.9,6.79,3.22C533.75,303.26,536.12,301.69,538.41,300.17Z"/>
    <path d="M1179.05,416.61l-19.49,9.65a9.4,9.4,0,0,1-2.61-2.13c-3.51-4.81-6.83-4.3-12.66-2.81-9.19,2.35-18.11,4.51-26.53,9.11-4.15,2.27-7.22.09-8.88-4.82-2.75-8.14-3.1-8.06-11.18-6.35-5.19,1.1-10.3,2.86-15.53,3.32-5.77.5-11.59,3-17.56-.29-2-1.08-5.11,0-7.71,0-5.09,0-9.69-1.11-13.22-6.73,8.43-6,16-13.23,25-17.32,6.79-3.09,15.5-2.81,21.72,4.72a41.44,41.44,0,0,1,6.56-1.65c3.29-.31,7-1.07,9.87,0a170,170,0,0,1,24,10.44c6.82,3.75,12.38,5.59,20.25,1.53,5.79-3,13.48-3.11,20.29-3C1174.09,410.34,1176.71,414.56,1179.05,416.61Z"/>
    <path d="M1010.14,480.69c-4.39-1.2-9-2-13.14-3.78-1.76-.76-2.64-3.58-3.87-5.39,6.76-6.87,13.33-8.32,19.44-4.55,9.95,6.15,9.95,6.15,17.43-3,5.69-.71,9.84,1.79,13.57,6.18,7.68,9.06,7.83,8.93,19.53,4.46,5.05,5.95,10.81,11.18,19.19,12.59,2.08.34,4.76,1.83,5.66,3.57,2.64,5.15,4.52,10.68,7.22,17.35-8.06-1.59-14.12,3.17-21.77,1-5.09-1.46-7.62-2.92-8.07-7.94-.18-1.92-.48-3.84-.86-6.75-9.43,5.69-15.53.22-21.47-5.21a39.67,39.67,0,0,1-5.56-7c-7-10.23-14.89-11.2-24.6-3A15.18,15.18,0,0,1,1010.14,480.69Z"/>
    <path d="M244.83,259.06c1.4,5.74,2.54,10.43,3.76,15.47-8.18,2.17-13.64-8.17-21.72-4.15,4.63,13.18,3.91,15-9.75,19.06-4.5,1.34-7.19,3.82-10.3,7s-7.6,5-11.8,6.53c-2.74,1-6.37.68-7.56-2.93-1.26-3.84-.26-7.18,3.78-9.11,5-2.4,10-4.91,14.89-7.33-.42-1.89-.32-3.11-.88-3.72-5.76-6.24-6.39-10.79-2.11-17.4,1.91-3,4.1-5.17,8.21-3.73,5.12,1.79,11.42-2.28,16,3.22.54.64,3.09-.37,4.7-.65Z"/>
    <path d="M897.17,414.68c13-3.6,15.41-2.17,22.91,13-5.2,2.69-5.2,2.69-13.46,2.06-2.54,6.05-7.72,6.47-14.11,7.4-11.3,1.64-18.19-3.06-24.33-11.07-2.2-2.87-4.48-5.68-7-8.83,2.86-4.87,5.95-4.81,10.38-1.66,5.87,4.17,9,3,12.1-3.39,3.48-7.29,6.24-7.63,10.91-1.3.39.53.54,1.22.9,1.77S896.33,413.67,897.17,414.68Z"/>
    <path d="M760.44,384c12,2.81,22.23,6.07,28.66,17.44l-25.53,14.24c-6.71-2.09-5.64-8.45-6.32-14.59-10.32-1.43-21.15-.42-30.7-6,.84-5.1,3.68-6.6,7.86-5.3,2.48.77,4.61,2.66,7.06,3.6a37.93,37.93,0,0,0,9.41,2.63c4.41.46,7.94-.87,8-6.43C758.83,388,759.68,386.5,760.44,384Z"/>
    <path d="M835.32,393.2l16.12,5.27c-3.63,6.9-5.8,13.75-10.18,18.6-4.21,4.66-10.71,7.25-17.3,11.45-8.28-5.47-4.81-14.68-6-21.24Z"/>
    <path d="M662.71,313.05c-2.5,14.45-6.53,17.12-18.07,12.29-4.57-1.9-8.23-2.85-13-.58-3.17,1.52-6.47-.15-8.21-3.69-2-4.12-.64-7.75,3.86-7.9C638.85,312.79,650.41,313.05,662.71,313.05Z"/>
    <path d="M492.65,384.52c-12.56-1.86-23.32-6.43-31-18.86l10.66-8.36c3.6,7.32,7.81,12.46,16.56,12.38C493.43,369.64,494.55,375.07,492.65,384.52Z"/>
    <path d="M966.9,397.74c4.52,2.27,2.59,5.67,2.61,8.81,0,1.9,1.4,3.79,2.17,5.69a34.67,34.67,0,0,0,5.23-3.71c.82-.81.93-2.42,1.15-3.71,1.07-6.35,5.07-6.74,10.3-5.52-2.09,5.17-3.73,10-6,14.57-2.37,4.82-7.49,5-11.94,5.5-3.7.43-4.71-2.78-5.58-5.79-.72-2.52-2.18-4.88-2.61-7.43C961.59,402.23,963.05,399.16,966.9,397.74Z"/>
    <path d="M924.56,390.33c9.47-5,11.24-4.59,15.83,2.49,2.46,3.8,5.24,7.39,7.92,11.13C941.89,407,936.35,403.74,924.56,390.33Z"/>
    <path d="M225.87,303.07c-2.85,1.88-4.6,3.94-6.24,3.86s-3.26-2.26-4.89-3.53c1.75-1.73,3.26-4.07,5.37-4.91C221,298.13,223.18,300.84,225.87,303.07Z"/>
    <path d="M674.55,320c1.36-6.05,4.13-8,9.52-7.93C683,317.37,681.43,320.9,674.55,320Z"/>
    <path d="M518.08,363.3l5.28,1.17-.27,2.18-5.44-.61C517.79,365.13,517.94,364.21,518.08,363.3Z"/>
  </g>
</svg>
