<svg id="Layer_1" data-name="Layer 1" xmlns="http://www.w3.org/2000/svg" viewBox="0 0 1366 768">
  <title>papua</title>
  <g>
    <path d="M948.81,599.46c-3.8-8.83,2.47-14,5.66-19.75,1.8-3.28,5.09-2.28,11.48,2.87,1.35-1.72,2.69-3.43,3.19-4.08-1.68-4.83-2.83-8.72-4.38-12.44-1.86-4.44-4-8.73-6.54-14,3.06-6.44,9.39-3.8,15.66-3v-14.8c-6.19,2.1-11.13,3.82-16.09,5.44s-8.34.53-9.71-6.11L963.21,531C958.32,522.3,951.45,518.65,943,518a33.08,33.08,0,0,0-13.65-16.85c-5.81-3.67-6-8.06-5.37-14.44.74-7.25.06-15.32-2.63-22-1.51-3.76-8.29-5.4-13.18-8.28l5.37-5.76-9.2-3.53c-1.25-4.88-2.68-10-3.85-15.13-1.24-5.48-3.82-9.94-8.87-12.65-1.43-.77-3.46-2.07-4.54-1.59-7.9,3.5-11.53-1.54-14.45-7.27-1.58.21-2.65.11-3.49.5-9.78,4.5-16.24,3.39-20.46-6-3.77-8.4-8.89-10-16.32-7.33-9.88-7.84-5.87-7.8-18.05.2-9.72-3.87-19.3-7.51-28.71-11.56-1.94-.83-3.52-3-4.73-4.9-3.1-4.84-7.33-6.42-12.85-5.47a61.8,61.8,0,0,1-7,.56c-5.31.32-10.23-.1-11.09-5.87-4.38,1.19-8.34,3.43-12.07,3.08-15.81-1.47-17.23-2.46-27.66-13.64,3.35-3,6.77-6,10.06-9.08s6.39-6.71,9.92-9.67c6.18-5.18,5.81-10.57-1.58-13.47-3.29-1.3-7.37-2.51-10.58-1.7-7.65,1.91-13.88-.47-19.5-4.85a14.1,14.1,0,0,0-10-3.37c-6.18.22-11-2.33-13-8.66-.3-.94-1-2.24-.61-2.84a45.21,45.21,0,0,0,6.32-16.28c.46-2.69,4.58-2.72,6.7-.52,1.77,1.84,2.68,4.48,4,6.75a76.28,76.28,0,0,0,5,8.36,96.68,96.68,0,0,0,9.73,11c2.28,2.16,5.15,4.29,8.11,5,7.68,1.91,15,2.91,22.6-2.52,4.3-3.08,11.06-2.73,17.4-2.34,1.56-2.08,2.72-4.7,4.73-6.16,8.92-6.44,10.11-15.35,9.34-25.37-.19-2.46,1.92-7.32,3-7.32,8.23.06,9.74-7.49,13.64-11.81,3.15-3.51,5.26-7.44,11-6.4.7-4.91-3.06-11.45,6-12.07a57.94,57.94,0,0,0,4.46,5.85c3.58,3.68,7.07,3.1,9.54-1.36,5.3-9.57,5.13-8.95,15.8-6,4.7,1.32,10.44.2,15.39-1.06,3.62-.93,3.75-5.84,1-10.3l-8.59-14c8.91-4.59,17-8.92,25.21-12.85,1.94-.93,4.53-.7,6.8-.63,2.66.08,5.45,1.26,7.92.74,7.66-1.63,12.84.49,14.42,9.15,2-.95,3.14-1.41,4.21-2,6.54-3.93,10.92-2.17,12.64,5.12,1.27,5.39,3.63,7.6,8.21,5,11.38-6.6,17.16,1.81,23.5,7.9,3.9,3.75,6.58,6.92,12.64,3.85,4.6-2.32,8.56,1.1,10.78,4.87,2.9,4.93,4.71,10.29,12.14,9.76,1.33-.1,3.08,3,4.33,4.84,4.08,5.95,7.58,6.84,13.19,3.16,12.82-8.39,20.76-7.81,33,2.58,3-.7,6.52-2.74,9-1.83s4,4.85,6.23,7.25c1.25,1.37,3,3.36,4.46,3.25,5.52-.42,8.07,4.23,12.09,6.26,3.79,1.91,5,4.91,5,8.95q-.09,45,0,90c0,3.48-.24,7-4.43,7.88-6.08,1.26-6.66,5.6-6.65,10.57,0,14.66,0,29.33,0,44,0,12.32.21,24.66-.08,37-.19,7.63,0,14.75,8.18,18-1.84,5.59-3.13,10.7-5.25,15.44-1,2.14-3.36,3.89-5.49,5.19-3.11,1.89-5.83,3.9-4.19,7.84,1.48,3.56,4.66,3,7.74,2.09a43.16,43.16,0,0,1,5.76-.72c-.52,2.53-.26,5-1.32,5.87-5.21,4.47-5.42,10.24-5.4,16.39.11,25.65.06,51.31,0,77a44.48,44.48,0,0,1-.43,9c-1.06,5.13-5,6.26-8.67,2.73-6-5.75-12-11.48-17.85-17.32a14.64,14.64,0,0,1-3.43-4.77c-2.73-7-2.8-7.27-7.85-10.86.92-1.54,1.85-3.14,2.84-4.69s2.54-3.18,3.23-5c1.63-4.32,3.76-8.86.37-13.24-2.07-2.68-12.57-3.12-16.12-.44-1.48,1.13-2.36,3.68-2.58,5.69-.21,1.85,1.2,3.82,1.25,5.76.13,4.83-2.21,7.13-7,8-6.49,1.12-12.91,2.69-19.42,3.65-3.38.5-6.89.09-11,.09.23-3.56,1-6,.34-8a7.87,7.87,0,0,0-4.06-4.58c-1.08-.43-4.09,1.17-4.53,2.44C958,595.28,954.72,598.31,948.81,599.46Zm96.27,14c-1.75-1.44-2.74-2.75-4-3.09-.76-.21-1.92,1.09-2.91,1.71a23.24,23.24,0,0,0,3.43,3.63C1041.94,616,1043.39,614.63,1045.08,613.5Z"/>
    <path d="M642.54,157.84c-.84,2.71-.9,5-2,6.24-4.9,5.44-2.62,10.29.45,15.43,1.65,2.76,3.28,4.42,6.86,4.74a11.31,11.31,0,0,1,7.84,18.1c-3.09,4-6.55,7.11-5,13.13.52,2-2.45,4.89-4,7.77,5.64,6.71,6.84,14.83,6.71,23.67-4.82-.29-5-3.35-5.7-6.28-2.13-8.68-3.56-9.36-11.52-6.71-7.51,2.5-14.9,5-22.32-1.07-1.44-1.18-6.46-.39-7.83,1.2-6,6.92-14.52,5.88-22,7.83-3.87,1-7.71-1.4-9.51-5.7s-5.22-4.32-9.18-3.38c-6.11,1.45-12.28,2.65-18.46,3.76a10.31,10.31,0,0,1-3.53-.25c-3.4-5.66-7-10.09-8.85-15.16a70.88,70.88,0,0,1-4-19.15c-.34-5.09-1.62-9.08-5.55-12.16-3-2.39-6-2.52-8.87.44-2,2.07-4.21,5.6-6.32,5.59-5.18,0-11.42-.24-15.29-3.06-6.78-4.93-12.67-4.78-19.46-1.33-1,.53-2.45.35-4.42.59.82-8,9-4.51,11.92-8.92s7.51-7.38,10.73-10.4c-.83-5.37-1.46-9.48-2.27-14.79,10.27,1.23,18.71-5.38,28.16-1.44a3.24,3.24,0,0,0,2.84-.45c6.54-6.21,17.31-7.11,21-16.88a11.2,11.2,0,0,1,2.93-4c4.33-4,8.14-3.46,10.84,1.93,1.66,3.31,3.89,4.8,7.26,6.07,3,1.11,5.2,5.33,8,5.54,3.19.24,6.66-3.72,9.89-3.55,8.24.43,17.48-2.39,23.83,6.42,2.87,4,7.89,4.39,12.74,4.51,5.2.12,10.54-.83,15.38,2.85C635.19,160,638.56,158.45,642.54,157.84Z"/>
    <path d="M608.07,305.92c-2.08,10.7-2.08,10.7,5.07,19.34L606,338.64H593.5l5,10.32c-4.47,1-8.17,2.2-11.94,2.47-4.21.29-8-5-5.44-8.16,5-6.31.73-13.82,3.82-20.22.6-1.25-1-3.65-1.78-5.45-1.16-2.72-3-5.27-3.59-8.09-1.05-5.05-2.07-9.55-7.77-11.64-1.88-.7-3-3.45-4.54-5.12-1.36-1.42-2.71-3.35-4.42-3.85-8.78-2.57-17.67-4.75-26.52-7.1-1.17-.32-2.29-.83-4.46-1.61,1.64-1.73,2.57-3.61,3.63-3.69,8.14-.56,16.35-1.31,24.45-.73,2.32.16,4.16,4.72,6.57,6.88,1.84,1.63,4.15,3.42,6.39,3.62,1.14.11,2.65-3.07,3.89-4.84,4.71-6.74,9.08-13.74,14.16-20.18,3.18-4,7.74-3,11.93-1,3.82,1.78,5.31,4.87,4.85,8.94-.33,2.87-.82,5.73-1.28,8.84,8.53,2.59,8.9-5.47,13.19-9.46l8.27,5a68.14,68.14,0,0,0,7.2-2.8c1.58-.81,3.44-2,4.1-3.5,3.69-8.27,3.57-8.32,13.39-14.16,2.28,5.29,4.26,10.94,11.35,11.85,1.43.19,2.78,3.54,3.55,5.66,1.81,4.91,3.38,9.92,4.78,15,1.11,4-1.53,8.47-5.77,10.29-2.73,1.18-5.51,2.26-8.2,3.52a15.42,15.42,0,0,0-2.72,2.35c.85,2.55,2.63,5.33,2.4,7.93s-2.45,5.07-4.45,8.8l10.08-1.32a31.38,31.38,0,0,1,3,3.39c6.12,9.2,6.39,9.2,16.68,5.94,1.84-.58,5.27-.27,6.13.94,3.69,5.21,8.64,5.39,14.19,5.14,4.63-.21,9.13.68,12.28,5.66-5.91,5-12.64,4.19-19,3.88-4.59-.22-9.1-2.16-13.7-2.46a133.24,133.24,0,0,0-17.41.42c-1,.06-1.82,1.74-3.74,3.74.16-8.23-3.84-11.94-10.72-13.81-3.18-.86-6.32-3.53-8.43-6.2-3.86-4.89-6.94-10.39-11.1-16.81a76.85,76.85,0,0,1,6.9-5.31c2.24-1.38,4.93-2,7.26-3.27,7.27-3.94,7.76-5.58,4.78-14.38-8.35-3.58-16.2-.83-24,2.05-5.23,1.94-6.3,4.43-5,10.19.89,4.05,1.68,8.12,3,14.32Z"/>
    <path d="M938,592.73c-10.78-2.05-11.69-2-19.63,1.31L920,604.49c-3.81,2.7-7.49,5.41-11.29,7.93a6.63,6.63,0,0,1-3.67,1.2c-9.6-.43-19.19-1-28.78-1.6-.56,0-1.07-.71-1.59-1.09-.19-11.47,2.11-13.72,18.09-16.56-.88-3.07-1.54-6.08-2.61-8.94-2.2-5.86-1-10.13,4.28-13.53,6.1-3.94,12.27-7.77,18.45-11.58a13.78,13.78,0,0,1,3.65-1.53c.92-.23,2.67-.36,2.85,0,3.81,8.25,14.55-.56,18.44,7.54a9.23,9.23,0,0,0,3.59,3.35c4.73,2.88,5,6.29,2.23,10.87C941.49,584.12,940.09,588.14,938,592.73Zm-44.73-13.56-1.21,1.37,3.67,3.35,1.35-1.52Z"/>
    <path d="M364.16,297.32l-3.56-8.23c5-8.08,14.49-2.27,20-8.53,1.72,2.52,3.32,4.23,4.18,6.25,2,4.72,1.14,7.19-3.84,8-7,1.19-11.62,4.52-13.91,11.15-1.36,3.94-4.14,5.22-7.8,3.65-4.75-2-9.93-2.92-13.52-7.74-2.16-2.89-6.38-4.89-10.05-5.9-11-3-17.44,1.53-22,15.1l-5.57-12.89-7.43-.47c-.19-1.52-.74-2.72-.36-3.39,7.2-12.84,18.5-15.39,32.86-8.07,7.53,3.84,16.15,5.26,23.25,10.32C358,297.73,360.81,297.07,364.16,297.32Z"/>
    <path d="M419.7,307.5c-4.55-5.06-9.49-4.15-14.85-2.84-3.38.83-7.27,1.38-10.53.53-5.29-1.39-6.17-5.8-2.56-9.94s7.76-6.9,13.95-4.64c3.32,1.22,7.17,1,10.78,1.44,2,.23,4.17,0,5.86.77,5.42,2.57,10.66,5.53,16.46,8.6-2.82,6.5-10.45,8.85-16.79,15.45,4.09-.24,7.07.48,8.65-.68,6.16-4.53,11.27-2.56,16.15,1.73,5.64,5,1.72,10.1,1,15.51-7.69-.92-9.12-9.41-16.67-9.68-5.58-.2-11.05-3.79-17.44-6.2Z"/>
    <path d="M677.75,462.21c1.46,2.56,2.75,5.23,4.4,7.66,4.6,6.82,4.57,8.91-1.18,17.36L668.77,480c1.12-3.44,3.16-6.34,2.62-8.65-1.43-6.13,2.17-7.61,6.58-8.94Z"/>
    <path d="M499.34,549.14c7.22,10.14,3,23-6.53,25.11-1.4.32-3.72,0-4.44-.91-1-1.35-2-4.09-1.28-5.27C490.65,561.94,494.75,556.11,499.34,549.14Z"/>
    <path d="M659.2,522.38c-1.36-3.59-2.28-5.34-2.69-7.2-1.55-7,4.23-15.18,11.36-15.92a5.43,5.43,0,0,1,4.18,1.9c.79,1,1,4,.48,4.3-4.84,2.83-5.47,7.8-7.26,12.33C664.62,519.45,662,520.34,659.2,522.38Z"/>
    <path d="M678,462.36c-.81-2.12-2.41-4.32-2.2-6.33a7.09,7.09,0,0,1,3.69-5,7.76,7.76,0,0,1,6.31.95c2.55,1.78,2.68,4.61-.27,6.45a84.5,84.5,0,0,1-7.78,3.77Z"/>
  </g>
</svg>
