<svg id="Layer_1" data-name="Layer 1" xmlns="http://www.w3.org/2000/svg" viewBox="0 0 1366 768">
  <title>sulawesi</title>
  <g>
    <path d="M541.45,500.74l8-7.42c-2.41-1.88-4.15-3.65-6.23-4.79-8-4.38-8.82-7.14-4.1-14.75.52-.85,1.24-1.57,1.75-2.42a15.58,15.58,0,0,0,.89-2.47l-6.24-8.95,8.22-6.23c-5.28-12.12,2.13-19.17,10.72-25.61l-8.29-27.64c2.85-3.5,6.47-7.69,9.79-12.12,3-4,6-6.91,11.68-5,2.3.78,5.18-.16,7.24-.28,2.78,2.06,5,4.62,7.81,5.6,8.71,3.08,10.14,5.19,8.28,14.55-1.15,5.75.24,8.38,4.81,8.65,3.84.23,6.53-1.14,6.46-5.59,0-2.24,0-4.47,0-7.75l24,10.5c6.51-4.07,14-.49,21.32,2.37a11.38,11.38,0,0,1,7.36,9.9c.93,9.06,1.07,9,10,7,.86-.19,1.82.11,3.53.24-2.22,5.76-5.23,9.59-11.24,10.32-6.78.83-10.21-2.93-8.52-9.49.67-2.55,2.24-5,2.29-7.54.05-2-1.08-4.92-2.62-5.8-1.36-.77-4.39.18-6,1.32-7.43,5.21-7.23,5.14-14.43.39a40.27,40.27,0,0,0-10.72-4.93c-4.08-1.19-8-.63-9.79,4.28-.44,1.21-1.14,3-2.07,3.25-6.65,1.83-10.64,8.89-16.43,10.26-8.9,2.1-12.92,10.29-23.76,13.14,9.48,2.89,11.3,8.41,12.35,14.92.65,4,3.1,7.74,5,12.25-5.44,1.47-6.89,5.47-6.74,11.62.19,7.85-1.61,15.72-2.28,23.61-.38,4.5.69,8.07,5.46,10.64,5,2.66,5.1,8.08,1.3,12.6-6.56,7.8-8.19,15.66-2.36,25,1.69,2.71.26,7.37.26,12.85L568.39,560c-4.28,6.72-4,9.83,2.44,11.91,5.87,1.9,6.79,6.25,7,10.71.2,4-1.77,7.35-6.6,8.74-2.82.82-5,3.7-8.22,6.19a15.24,15.24,0,0,1-3.43-1.83c-7.88-6.69-7.85-6.72-14,1.57-3.3,4.43-7,4.82-10.64.72a7.8,7.8,0,0,1-1.64-5.24c.15-2.24,1.28-4.42,2.17-7.17l-3.48-3c-1-.83-1.93-1.65-3.83-3.27,2.4-2.33,5-4,6.28-6.33s1.43-5.47,2.17-8.65l6.87-2c1.83-6.15-4.72-6.09-6-9.6,1.57-5.6,7.56-15.81,11.66-19.85,3.43-3.38,3.44-16.31-.15-21.8C546.76,507.77,544.29,504.64,541.45,500.74Zm21.79-59.41c-.8-3.49-1.17-5.4-1.77-7.23-.05-.16-2.1-.13-2.45.35C557.2,437.06,557.8,439.11,563.24,441.33Z"/>
    <path d="M669.42,326.72c8.34-.83,15.25-5.63,22.76.36,1.9,1.52,6.05.23,10.09.23-1.24-4.79-2.21-8.49-3.16-12.14,11.52-3.75,15.23-2.55,19,5.83,2.2,4.9.8,7.58-4.46,8.4-1,.14-2-.23-3-.11-6,.74-8.25,4.06-6.23,9.54.89,2.44,2.45,4.64,3.93,7.37-6.53,10.06-16.17,13.46-27.28,13.14-10-.28-10.49-.29-13.05,8.85a17.73,17.73,0,0,1-1.82,4.61c-2.9,4.74-6.09,4.9-10.1.59-.89-1-1.65-2-2.44-3-2.82-.15-5.45-.38-8.07-.41-5.28-.07-6.73,1.32-6.66,6.12.1,6.68.1,6.68-4.35,12.41l13.49,8.18c.13,5.08-2.93,6.84-7.57,6.06-10.82-1.8-20.3-5.95-25.23-16.3-15.68-.7-19.42-1.56-14.46-15.12-5.91-2.58-11.42-5.15-16.78,1.54-3.43,4.27-7.95,2.56-11.8.36-2.19-1.25-3.83-3.44-6.45-5.89l-8.2,10c-4.39-7.65,2.67-13.39,2.58-21.12l-10.56,2.45c-1-8.1-1.89-15.79-3.05-25.58-1.37-1.54-7.1-2.73-6.35-8.71.49-3.9-.2-8.17,5.23-10.21,1.06.83,2.38,1.72,3.53,2.79,7,6.64,8.93,6.39,13.39-1.87,6.06,17.14,10.95,22.65,26.63,11.34,4.56,2.59,6.41,6.29,4.71,11.55a39.79,39.79,0,0,0-1.65,4.7c-1.44,7.5,4.09,12.85,11.16,10,4.84-1.95,8.46-1.49,13.14.34,8.8,3.43,15.88-.43,20.29-9,1.74-3.4,4.63-6.25,7.24-9.13,2.41-2.64,5.46-4.74,7.7-7.5,5.52-6.82,7.71-7.37,14.86-2.8C667.56,325.23,668.58,326.09,669.42,326.72Z"/>
    <path d="M660.14,523.19,670.71,525c.26-2.55.73-5.06.74-7.58,0-11-.2-11.14-11.32-12.24a31.25,31.25,0,0,1-6.78-1.6c-6.17-2.11-7.75-5-6.29-11.34.43-1.87,1-3.71,1.83-6.75-12.32,2.67-20.07-5.39-29-8.49,3.9-8,7.38-14.92,10.59-21.92,1.84-4,12.51-9.63,15.72-7.25,2.57,1.92,3.75,5.68,6,9.35,1.14-1.36,2.68-2.51,3.28-4,1.39-3.52,3.68-6.15,7.4-5.05a11.72,11.72,0,0,1,6.29,5.28c4.49,8.26,7.45,9.83,16.72,7.51a36.21,36.21,0,0,1,3.81-1.17c4.12-.53,6.39,2,7,5.5.59,3.13-.51,6-4.39,6.59-1.9.29-3.8.64-6.93,1.16.35,5.85,0,11.51,1.19,16.85,1.48,6.84,6.27,9.32,13.44,8.26,9.85-1.46,12.28.13,15.21,9.29,1.22,3.79,3.15,7.34,4.41,11.12,2.1,6.26.75,9.5-5.33,10.2a81.44,81.44,0,0,0-28.52,8.22c-2.33,1.2-5.78.18-9.26.18-2.72,5.92,2.36,11,3.1,16.4-11.59,2.84-16.22-6.14-23.14-12.49l10.29-8.25-7.6-6.85C659.49,525,659.81,524.1,660.14,523.19Z"/>
    <path d="M533.73,358.15c11.74,4.13,13,7.23,9.35,16.17-2.88,7-5.73,14.17-7.15,21.54-.62,3.22,1.81,7.51,3.86,10.67,4.19,6.46,5.41,12.59.69,19.32-5.1.58-7.32-8.14-12.72-4.14-1.26,7-2.45,13.56-3.73,20.69l7.56-2c2.08,3.49,2.53,6.1-2.71,6.68a8.41,8.41,0,0,1-2-.17c-3.74-.54-7.44-1-9,3.71-1.51,4.51,0,8.42,4.45,11.68.74.54,1.39,1.21,2.62,2.31-6.41,8.3-16,7.19-23.79,9.88-7.76-10.23-6.62-13.46,6.7-18.1a57.09,57.09,0,0,0-6.23-3.24c-4.16-1.53-6-4.25-4.39-8.48,2.11-5.54.66-9.76-4.93-12.51,6.49-5.45,12.31-10.06,17.75-15.07,1.82-1.66,3.91-4.48,3.73-6.59-.56-6.59,2.69-10.53,8.09-13.47l-3.61-8.2c2.61-.9,4.63-1.82,6.74-2.3,9.34-2.16,10.93-4.05,10.37-13.62C535.1,368.39,534.38,363.89,533.73,358.15Z"/>
    <path d="M844,183.13c6.45,1.18,10.79-1.36,14.52-5.58,3.21-3.62,6.71-7,10.06-10.44,6.19,5.63,6.86,7.07,1.57,10.79-7.43,5.24-12.09,12-15.45,20.07-.49,1.19-1.26,2.67-2.31,3.18-7.9,3.82-10.08,11.43-13.41,18.61-4.79,10.32-5.35,10.16-16.55,4.56L818,238.07c-13.46.75-25.84,7.37-39.35,4.81-1.55-5.32-2.4-10.92-4.8-15.74-2.3-4.63-6.2-8.46-9.66-13,5.57-3.07,10.35,1,15.36,1.12,7.3.15,3.78,9.33,9.65,11.81l4.28-9.07c12.41-2,24.27-5.15,33.29-14.9,1.46-1.58,4.78-1.92,7.27-2,7.71-.24,9.17-1.29,9.91-8.87C844.21,189.66,844,187,844,183.13Z"/>
    <path d="M627.54,187.54,662,205.27c-1.55,4-4.87,3.58-8.14,3.56-6.92-.06-12.74,1.93-17.68,7.41-2.27,2.53-6.72,3.09-10.91,4.85,1,3.83,2.16,8.47,3.46,13.57A22.63,22.63,0,0,1,613,233.13a72.73,72.73,0,0,0-8.36-3.2c-7.8-2.6-7.46-3.32-4.53-11.25,3.22-8.67,11.49-12.46,16.37-19.42C619.16,195.44,622.91,192.38,627.54,187.54Z"/>
    <path d="M755.2,216.39c-4.34,5.44-7.11,9.53-10.5,13-3.77,3.85-8.87,2.88-13.14,1.35s-8-1.23-12.42-.09c-7.59,2-15.46,2.53-19-8.18-2.51,2.35-4.37,3.37-5.1,4.91-2.18,4.6-4.76,6.28-10.23,4.72-2.8-.79-6.53,1.65-11,3-2.78-6.59-5.65-13.38-8.86-21,2.38-1.09,4.82-3.22,6.18-2.67,8,3.23,14.79-.51,21.83-3.1a20.16,20.16,0,0,1,3.63-.66c6.09,11.15,6.09,11.15,16,3.52,4.93-3.8,13.72-.34,16.87,6.72a13.35,13.35,0,0,1,.66,3.12C739.43,226.11,744.51,214.81,755.2,216.39Z"/>
    <path d="M697.69,441.93c-7.26,4.92-13.47,6.07-20.43,2.34-4.17-2.24-5.84-4.75-4.41-9.58,1.31-4.37,1.72-9,2.61-14-6.88-1.84-12.49-4.51-15.4-10.52a12.59,12.59,0,0,1-1.53-6.42c.41-3.5,3.62-4.77,6.7-3.1a6.12,6.12,0,0,1,2.32,1.86c4.49,7.27,10.91,14.12,12.78,22C682.65,434.39,686,441.06,697.69,441.93Z"/>
    <path d="M563.06,249.6c2.33-8.73,4.66-17.46,7.13-26.73,4.59-.53,10,1,14.15-3.8,1-1.12,5.12.51,10.21,1.19-7.43,5.93-13.24,9.66-17.86,14.51s-8,10.78-12,16.24Z"/>
    <path d="M860.5,377.23c-9.55-4.13-18.37-5.21-23.61,5.42-8.49-3-10.3-6.44-6.85-12.09.77-1.27,2.44-3.05,3.51-2.94,8.35.93,17.16-1,24.93,3.48,1.41.82,2.12,2.84,3.15,4.31Z"/>
    <path d="M707.18,583.27c-.24-2.41-.91-4-.38-4.82,3.66-5.67,4.1-11.44,2-17.85-.54-1.65.63-5.06,2-5.84a8.89,8.89,0,0,1,7.21-.26c1.29.61,2,4,1.76,6C718.47,575.51,718.38,575.5,707.18,583.27Z"/>
    <path d="M770.52,237.55c-.23,4.65-4.14,7.35-8.19,4.8a41.88,41.88,0,0,1-9.86-9.36c-2.55-3.17-.33-5.5,2.85-6.7C761.43,224,770.84,231,770.52,237.55Z"/>
    <path d="M557.7,281.92c3.94,2.17,4,6.41,4.44,10s-2.32,5.36-5.66,5.41-4.25-2.56-4.26-5.41C552.22,287.83,553.11,284.12,557.7,281.92Z"/>
    <path d="M659.41,221.26c-3.51,2.58-5.24,4.87-7,4.89-2.26,0-4.79-1.45-6.68-2.94-.86-.67-1-4.09-.58-4.27,2.2-1,4.73-1.89,7-1.68C654.11,217.44,655.88,219.21,659.41,221.26Z"/>
    <path d="M747.42,540.06l-6.5,16.34C736.66,544.37,737.67,542.11,747.42,540.06Z"/>
    <path d="M757,309.62c5.09,3.29,9.19,7.09,6.4,14.26C754.5,322,757.93,314.78,757,309.62Z"/>
    <path d="M737.53,575.57c.49,2.4,1,4.79,1.48,7.19C734.6,581.17,735.89,578.4,737.53,575.57Z"/>
    <path d="M741.44,346.28c-1.13,1-1.77,2-2.56,2.1-.56.11-1.33-.87-2-1.37.63-.66,1.17-1.66,1.93-1.9C739.4,344.93,740.28,345.72,741.44,346.28Z"/>
  </g>
</svg>
