<svg id="Layer_1" data-name="Layer 1" xmlns="http://www.w3.org/2000/svg" viewBox="0 0 1366 768">
  <title>sumatra</title>
  <g>
    <path d="M865.07,507.25c-1.19-5.19.12-8.83,5.36-11.32,7.59-3.62,12.68-.3,17.47,6,4.58-4.67,9.94-5.53,15.54-4.57,2.8.48,6.1,1,8.08,2.79,5.77,5.13,12,8,20.08,6.12,2.33,7.13-1.66,10.73-6.39,13.17-5,2.58-8.15,5-6.36,11.52.63,2.26-1.35,5.58-2.84,8-2.17,3.52-4.23,6.76-1.83,11.06,1.12,0,2.58.41,3-.06,6.27-7.85,16-10.34,24-15.41a51.59,51.59,0,0,0,5.45-4.12c5.29-4.38,11.91-5.1,17.54-2.19,3.66,1.88,7.54,3.32,12.88,5.63,1.07,3.72,2.54,9.11,4.24,14.42a8.5,8.5,0,0,0,2.52,3.91c8,6.42,8,6.49,3.22,16.24,4.09,3.34,8,1.08,12.11-.1s4.11-.94,5.5,5.72c-1.8.41-3.59.89-5.41,1.2-3.18.53-4.57,2.44-4.55,5.54,0,2,.88,4.67-.08,5.86-5.67,7-3.43,15.17-3.63,22.91-.12,4.83.44,9.68-.55,15.22-1.62-3.33-3.43-6.58-4.82-10-2.86-7-3.33-7-11-6.82-4.07.07-8.16-1.55-13.16-2.59a25.94,25.94,0,0,0-2.64,3.93c-1.66,3.47-4.19,4.48-8,4.5-6.83,0-7.73,1.15-8.75,7.93-.39,2.58-.61,5.19-1,8.85l-9.62-5.29c-2.94,4.32-4.83,10.15-8.41,11.51s-9-1.61-13.67-2.72c-3.09,9.29-3.09,9.29-13.41,14.55.82,8.06,1.62,16,2.49,24.65l-15.14,1.46c-3.27-2-5.77-4.11-8.66-5.18-4.67-1.72-6.13-4.45-4.92-9.24.52-2,.83-5.06-.26-6.46-4.56-5.84-9.76-11.2-14.58-16.85a34.94,34.94,0,0,1-3.14-5.27l-14.77,4.07,3.25-8.57-10.6-11.92c-7.27,2.28-15.23,9.14-21.46-1.8,1.52-4.06,4.25-6,8.46-5.61,4.43.45,6.63-2,8.43-5.61,1.31-2.61,2.62-5.65,4.82-7.29,3.85-2.87,4.29-6.5,4.12-10.59-.35-8.67-3.84-10.4-11.31-5.66-6,3.83-7.92,3.86-11-2.27-2.66-5.28-5.69-7.94-11.65-6.37a3.87,3.87,0,0,1-2.91-.37c-8-5.82-19.94-6.68-22.91-19.62,1.22-3.31,4.52-4.74,8.34-3.34,6.92,2.53,13.57,1.79,20.6.55,4.35-.77,9.07.49,14.19.89a38.25,38.25,0,0,0,0-5.32c-1.48-9.38,4-15.37,13.51-13.85,5.18.82,10.19,2.78,15.23,4.38,1.89.59,3.65,2.29,5.46,2.27,3,0,7.07-.05,8.91-1.87,2.61-2.59-.28-5.42-2.56-7.47-3.41-3.06-3.4-6.08-.37-9.48,2.79-3.14,5.3-6.53,8-9.84,5,4.17,5,4.17,9,2.58C870.41,507,870.41,507,865.07,507.25Z"/>
    <path d="M659.92,348.81c-1-5.74-1.87-10.22-2.8-15.24,2.85-3.77,9.47-5.51,9.7-13-8.52-1.76-8.44-9.46-10.8-15.49,2.25-5,6-7.42,10.76-8.53,3.51-.82,4.83-3.08,4.6-6.61-.17-2.64,0-5.31,0-8,0-4.81,0-9.61,0-15.64l-7.2-5.5c.34-2.53.72-5.36,1.2-8.89,3.38,1.35,6.31,2.05,8.66,3.61,1.94,1.29,4.08,3.39,4.61,5.51,2.63,10.41,3,10.79,13.49,7.17,3.22,5.49,8,5.17,13.2,1.85a27.45,27.45,0,0,1,2,4.16c3.69,13.45,15.76,20,28.77,15.45,9-3.13,9.73-2.69,11.33,6.88a12.83,12.83,0,0,0,1.44,2.58c2.5-.62,5.26-1.37,8.05-2,5.75-1.32,10,.76,11.68,6.23,1.8,5.68,3.86,11.45-1.57,16.7-1.39,1.35-1.61,3.92-2.46,6.18,12.42.55,12.62.33,23.28,10.27,4.11,3.83,8.42,3,13,2.95,8.46-.15,10.3,1.31,13.55,11.16l-11.42,1.59c-.51,3.15-1.06,6.61-1.83,11.36-2.47.1-5.22.37-8,.3-6-.16-7.66.89-9.06,6.72a30.83,30.83,0,0,0-1.1,7.89c0,1.72.83,4.25,2.07,4.89a5.92,5.92,0,0,0,5.39-.76c6.44-5.79,13.73-7.5,22.16-6.18,4.19.66,7.33-.78,9.52-5.29,3.09-6.37,8.06-11.05,15.57-12.68,2.94-.65,5.49-3.07,8.69-5,.14.13,1.33.71,1.38,1.37.49,7.17,5,9.52,11.37,10,4.32.34,4.3.57,6.91,5.9l-17.46,4.31a12.42,12.42,0,0,0-.56,2.86c1.46,9.63,1.44,9.57-7.28,15-1.23.76-2,2.37-2.77,3.71-.18.31.34,1.37.8,1.64A36.54,36.54,0,0,0,843,400c-9.15,6.15.06,14.8-3.06,22.62-5.61,1.27-10.83,3.05-16.24-2.19-8.81-8.55-26.37-3.27-29.64,8.74-1.24,4.55-2.28,8.31-8.56,7.42-1.73-5.94,5-15.94-7.39-16.77-3.15,3.75-5.63,8.27-9.44,10.86-4.93,3.35-8.16-2.48-12.65-4.91l-4.87,9.8c-3.34,0-7,.42-10.52-.14-2.43-.38-5.51-1.51-6.81-3.35-6-8.44-12.52-16.14-22.8-20.34,1.5-3.8,2.77-7,4-10.29-4.26-4.85-8.4-.12-13.15-.74a22,22,0,0,0-3.57-3.71c-5.37-3.73-6.46-6.94-3.36-13.92,2.94-6.62,4.43-15.4-1.55-22.77-1.69-2.08-1.74-5.49-2.72-8.87H679.15c.31-2.62.41-4.52.78-6.36.77-3.74,0-6.84-3.92-8-3.81-1.07-7.22-.21-9.54,3.46C664.66,343.47,664.53,347.78,659.92,348.81Z"/>
    <path d="M618.64,194c-1,3.45-2.11,7.09-3.22,10.83,9.11,4.12,7.52-5.09,10.36-7.92,6.4.48,2.78,5.14,4.18,8.22l10.15,4.36c-3.13,2.29-4.81,4.19-6.89,4.89-4.57,1.55-5.5,4.37-4,8.52.78,2.2,1.69,4.35,2.44,6.56,1.31,3.82,3.82,5.25,7.74,4.09,3.19-1,6.66-1.37,9.48-3,2.22-1.27,3.62-4,5.57-6.23,5.12,5.62,1.14,11.14-.82,15.11,1.54,6.47,3.28,11.43,3.76,16.51.4,4.2-.35,8.44-4.23,11.7-1.87,1.57-2.38,4.74-4.3,8.89l12-2.38c.95,1.31,2.42,2.5,2.69,3.91.41,2.07.77,5.39-.33,6.21-1.7,1.28-5.21,2-7,1-4.41-2.36-8.63-3.38-13.38-1.82-4.22,1.38-6.7,4.15-6.84,8.77-.12,3.77,1.43,5.77,5.08,7.47,6,2.77,7.68,6.2,5.2,12.05s-1.2,9.48,4.66,12.92l-5,3.66c-3-6.53-9.46,0-13.84-3.94-3.49-3.13-9-4.08-13.59-5.88a8.45,8.45,0,0,0-2.85,0c2.1,13.41,2.28,17,17.55,29.49-6.14,1-10.2-1.19-13.87-4.29-1.5-1.26-2.37-3.23-3.79-4.6-2.49-2.4-4.87-1.87-6.56,1-.83,1.4-.71,3.74-1.82,4.54-3.64,2.61-7.47,5.24-11.64,6.59-.91.29-4-4.47-5.25-7.26-2.48-5.36-4.4-11-6.7-16.9l5.84-8c-1.9-1.53-3.22-3.15-4.91-3.83-4.52-1.82-6.48-5.49-7.92-9.69-.54-1.58-.8-3.34-1.68-4.69-6-9.21-4.41-16.81,6-23.07-2.56-1.45-4.15-2.28-5.66-3.22-3-1.89-6.32-3.49-8.94-5.83-5.58-5-10.15-10.85-18.69-11.84-3.58-.42-6.71-4.63-10.65-7.58,4.06-9.86-5.05-14.55-12.57-22.15,2.89-1.4,4.39-2.11,5.88-2.86,3.15-1.61,5.84-3.74,4.86-7.73-1-4.21-2.44-8-7.49-9.62-7.19-2.34-7.82-4.29-7.68-11.49.11-5.62.17-10.79,3.7-15.85,3-4.35-.15-12.55-5.19-16.62-6.64-5.38-6.48-5.27-1.7-12.33s11.61-9.61,19.3-11.2c2.24-.46,4.43-1.18,7-1.88,1.68,3.08,2.53,7.19,7.66,5.16.87-.34,4,2.49,4.54,4.32,1.5,4.68,2.18,9.63,3.42,15.59,3,.8,8.16.66,9.44,6.43.26,1.16,2.52,1.93,3.94,2.76,4.25,2.49,8.55,4.93,14,8.07,2.39-1.8,5.46-4.1,8.8-6.59,6.64.92,3,10.44,10,12.12C609.67,186.56,613.7,190.78,618.64,194Z"/>
    <path d="M754.2,445.91l8.92-5.83c1.6,1.23,3.16,2,4.12,3.24,3,3.88,6.34,5.51,11.21,3.21s8.46,0,10.83,4.2c2,3.48,4.47,5.5,8.58,5.84,8.9.74,11.36-2.2,8.73-10.8-2-6.67,3.15-15.08,9.37-13.64,7,1.62,13.11-1.12,19.51-1.92,6-.76,11.13,0,16,3.26,5.25,3.47,10.94,6.47,15.58,10.64,3.22,2.89,5,7.41,8.32,12.71l6.82-12.1c1.27,1.75,2.67,3,3.28,4.63,3.18,8.24,4.84,8.56,11.16,2,1.51-1.55,3.4-2.73,6.5-5.17,1.5,7.34,3,13.24,3.7,19.24.18,1.64-1.94,4.09-3.63,5.27-6.25,4.33-12.72,8.35-19.21,12.33-1.93,1.19-4.2,2.68-6.29,2.64-8.14-.19-14.35,4.75-21.44,7.34-3.44,1.26-5.08,3.63-5.65,7.41-.87,5.8-2.47,11.49-4.07,18.62-4.8-6.07-8.81-12.3-17.07-6.27.24,2,.55,4.53.9,7.48-4.76,2.09-8.18,1.91-10.76-3.18-.92-1.8-3.24-3.92-5-4-3-.16-7,.23-9.09,2.07-2.83,2.5-1.13,6.15,1.15,8.91,1,1.21,2.08,2.35,4.35,4.89l-12.09-2c-.22,2.52-.3,5-.67,7.43-1,6.37-4.74,9.48-10.41,6.71-6.42-3.12-13-1.25-19.34-2.73a7.06,7.06,0,0,0-5.58,1.16c-5.11,4.73-9.51,2-13.15-1.43-4.07-3.82-8.35-8.06-10.63-13-3.21-6.93-7.42-11.63-12.8-12.36l-10-18.33c6.62-8.52,9.6-9.17,19.89-3.51a31.51,31.51,0,0,0,4.36,2.4c4.5,1.64,8.34-1,6.56-5.1-3.23-7.4.75-14.37,0-21.57-.27-2.5,2.51-5.75,4.61-8C756.43,453.55,756.61,453.72,754.2,445.91Z"/>
    <path d="M486.38,177.11l-9.61-2c-1.77-6-3.3-11.21-4.95-16.86-7.74.53-14.85.06-21.14-4.64a11.92,11.92,0,0,0-7.57-1.82c-11.37,1-16.52-6.31-22.11-15.8l10.93-5.81c-7.09-6-7.06-5.83-17.2-3.84-2.29.44-6,.19-7.17-1.27C400.38,116.45,389,111.9,384.24,101a5.65,5.65,0,0,0-3-2.51C368.51,93.61,367.1,80.7,361.7,70.76c-.87-1.59.56-5,1.8-7,1.11-1.8,3.44-2.84,5-4.06.18-5.19-6.77-9-1.06-14.68,6.53.81,11.76,4.56,15.43,10.12,3.22,4.89,4.66,11.17,12.21,11.62.72,0,1.25,3.23,2.33,6.27,3.19-1.45,6.65-2.38,9.29-4.38,3.9-2.94,7.54-3.42,12.1-1.86C422.21,68,426,68,429.54,68.6c4.26.68,8.06,1.27,10.84,5.77,4.63,7.49,6.27,7.15,11.87-.4a23.15,23.15,0,0,1,2.4-2.19c2,1.83,3.91,3.79,6,5.63,4.82,4.28,9.3,4.1,13.94-.48,5.31-5.22,5.31-5.22,14.93-3.68.7,3.39,1.57,7.17,2.24,11,.45,2.61-.09,5.68,1.13,7.78a8.73,8.73,0,0,0,6.1,3.77c1.43.11,3.7-2.42,4.48-4.24,1-2.3.85-5.09,1.28-8.29,5.09,1.46,7.62,3.38,7.94,8.92.51,8.59,3.16,16.29,13.57,18.24,2.86.54,5.32,3.19,9.09,5.58-2.86,1.6-4.15,2.68-5.62,3.07-5.64,1.47-9.32,3.77-9.26,10.79,0,3.5-3,7.17-5.1,10.5-2.63,4.19-6,7.95-8.44,12.21-1,1.74-.77,4.32-.73,6.5.05,3.25.43,6.49.72,10.44l5.57,3.46a43.43,43.43,0,0,1-3.32,3.94c-7.53,6.82-7.54,6.8-3.87,16.68.34.92,1,2,.79,2.83-2.22,10.36,4.33,15,12.11,18.92a7.81,7.81,0,0,1,2,2.06c.19.22.17.62.4,1.59-2.58,5.06-7.66,5.17-12.54,4.67-4.53-.46-4.87-4.61-6-8.16a84.43,84.43,0,0,0-5-11.78c-1.38-2.79-3.32-4-7.08-3.95-6.57,0-10.21-8.27-6.7-13.76a63.69,63.69,0,0,0,3.65-5.78C487.3,179.53,486.65,178.36,486.38,177.11Z"/>
    <path d="M916.29,655.09c.45-3.08.82-5.56,1.16-7.86,4.54-5.15,12-2,19.28,8.38,1.24-1.55,2.63-2.77,3.37-4.31,1.14-2.39,1.73-5,2.77-7.48,2.83-6.68,6.1-12.9,16.33-10.65-4.31-9.31,2-13.57,6.83-20.4,5,7.86,14.7,11.38,11.32,22.85-1.47,5,2.7,10.14,9.34,13.49,8.83,4.47,8.83,5.08,7.86,14.25s-1,18.36-1.6,27.53c-.62,9.61-1.38,19.21-2.21,28.8-.1,1.18-1,2.29-1.46,3.28-4.71.11-4.81-3.44-5.82-6.08-1.92-5-4.81-7.53-10.7-5.84-6.91,2-11.49-3.93-17.2-6.08a73,73,0,0,1-6.95-3.68c1.45,8.33,5.65,15.77-2.87,21.58-1.94-1.08-4.12-2.46-6.43-3.57-9.81-4.71-9.82-4.69-7.57-16-6.78,1.94-12.57,9-21,1.6.87,5.67,1.43,9.33,2,13.13-11-.46-12.6-3.06-9.26-15.75l-13.57.71c-10.38-12.15-10.38-12.15-5.19-18.44,1,.62,2.17,1.21,3.22,1.92,7.85,5.34,8.17,5.12,12.61-3.6,1.46-2.88,3.92-5.28,6.06-7.78,1.89-2.22,4-4.28,5.95-6.4-2.71-3.37-5.52-6.1-7.3-9.39-.87-1.62.16-4.27.37-7Z"/>
    <path d="M741.52,446.86c-1.62,1.69-3,3.85-4.92,5-3.72,2.15-5.49,5.37-4.53,9.14,2.81,11.11-4.9,15.35-12.47,20.69l-7.18-6.25-20.14,15L691,476.76c-7.88-1.09-9.72-7.15-10.78-14C678.74,453,678.61,453,668.79,449l7.63-7.35c-10.28-.82-10.48-.87-9.34-10.84.46-3.95-.62-6.23-4.27-7.83-7.66-3.37-7.47-3.46-5.74-10.91a12.38,12.38,0,0,0-.2-6.62c-2-5.64-4.11-6.41-9.83-4.28-1.51.56-3,1.28-5.11,2.21-1.62-4.5-2.67-8.89-8-10.33-1.43-.39-3.07-5.47-2.29-7.5,2.49-6.53-.24-9.94-5.38-13.11-2.76-1.7-5-4.31-7.7-6.77-5.41,2.13-10.78,3.46-14.63-2.92-.36-.59-3,.2-5.38-.89l18.74-11.52c.89,4.31,1.47,7.08,2.25,10.85,4.25-2,7.76-4.81,11.46-5.1,3.5-.27,7.21,2.09,11,3.36,2.52-5.42-2.87-12.57,5.71-15.66.31,2.13.6,3.89.81,5.65.4,3.23.05,6.75,1.24,9.65,3.85,9.38,10.8,10,16.84,1.9a26.42,26.42,0,0,0,1.75-3c16.55,6.51,20.46,11.09,19.66,22.83l-10.46,1.35c-2.71,5-1,8.67,3.43,10.8,5.41,2.6,8.71,6.92,11.85,11.7s6.39,9.36,12.48,12a17.62,17.62,0,0,1,10.12,13.85c11.63,3.12,13.5,4.85,17.16,16l7.09-2Z"/>
    <path d="M716.35,532.09c8.32-1.22,18.17,3.57,21,9.88,4,8.83,4.43,9.08,14.06,8.26,12-1,14.8.63,20.67,12.38a6.69,6.69,0,0,1-.55,1.86c-1.88,2.9-7,5.2-4.4,9,1.9,2.77,6.6,5.23,9.92,5.07,7.49-.35,12.74,2.44,18.67,6.63,4.36,3.07,11.1,3,16.86,3.76,3.15.41,3.23-.16,7.35,2.7l-17.29,13L796.4,602c0,5.42-1.11,10.92.32,15.65,1.35,4.44,5.38,8.07,8.2,12-4.91,2.55-5.68,2.41-8.46-2.25-2.36-3.93-5.47-7.72-6.61-12s-.25-9.11-.25-14.23l-8.16-.8-8.81-18.61c-3.59,2.73-6.1,4.64-8.08,6.16-7.29-5.27-14-10.55-21.16-15.2-6.53-4.25-8.17-9.19-3.13-16.39-5.7-2.18-10.59-4.47-10.44-11.52,0-1.43-4.21-3.58-6.79-4.27C718.74,539.45,715.37,538.19,716.35,532.09Z"/>
    <path d="M821.12,642.23c-2.94,0-5.38.73-6.73-.18-2-1.31-4-3.66-4.37-5.84-.24-1.51,2-4,3.72-5.1,2.16-1.42,4.89-2.07,7.46-2.75,6-1.56,8.61-.61,9.39,5.32,1,7.5,5.15,10.13,11.78,11a22.13,22.13,0,0,1,5.71,1.74c7.23,3.05,7.89,5.78,3.7,13.27-5.59-1-11-1.79-16.38-2.95C827.86,655.07,823.49,649.91,821.12,642.23Z"/>
    <path d="M705.46,493.29c3.7,6.16,6.88,11.46,10.57,17.63l-7.83-1.55c-1.84,3.71-3.62,7.32-5.73,11.59-5.56-4.8-6.73-9.42-4-14.88C700.61,502,702.92,498,705.46,493.29Z"/>
  </g>
</svg>
